<?xml version="1.0" standalone="no"?>
<!DOCTYPE svg PUBLIC "-//W3C//DTD SVG 20010904//EN"
 "http://www.w3.org/TR/2001/REC-SVG-20010904/DTD/svg10.dtd">
<svg version="1.0" xmlns="http://www.w3.org/2000/svg"
 width="195.000000pt" height="158.000000pt" viewBox="0 0 195.000000 158.000000"
 preserveAspectRatio="xMidYMid meet">

<g transform="translate(0.000000,158.000000) scale(0.100000,-0.100000)"
fill="#000000" stroke="none">
<path d="M351 1493 c-5 -26 -13 -69 -17 -95 -7 -53 -16 -59 -119 -78 -126 -24
-126 -31 7 -53 56 -10 106 -23 110 -30 14 -22 8 -68 -16 -115 -77 -152 -77
-170 -30 -860 l6 -93 139 2 c78 0 139 5 139 10 0 18 -53 29 -144 29 l-93 0 -7
83 c-40 510 -40 634 3 747 31 81 38 88 46 51 3 -17 10 -31 15 -31 9 0 30 86
30 124 0 36 48 72 121 90 36 9 76 16 88 16 20 0 21 2 11 15 -7 8 -25 15 -41
15 -50 0 -41 18 35 65 41 25 80 53 88 62 34 42 -140 -29 -205 -83 -58 -48 -89
-27 -117 81 -12 44 -25 84 -29 88 -5 5 -14 -13 -20 -40z"/>
<path d="M911 1499 c-132 -26 -255 -172 -306 -366 -41 -151 -46 -224 -35 -471
9 -193 9 -237 -2 -243 -11 -7 -11 -9 1 -9 9 0 12 -11 9 -40 -2 -22 0 -40 4
-40 4 0 6 -38 4 -85 l-3 -85 391 2 391 3 3 273 2 273 23 -6 c12 -4 43 -14 68
-22 53 -18 54 -20 65 -171 8 -93 19 -113 29 -50 25 164 45 232 61 215 3 -3 3
-112 -1 -241 l-7 -235 -89 -3 c-124 -4 -114 -22 15 -26 l103 -3 7 38 c3 21 6
86 6 144 0 58 3 160 6 227 l7 120 33 7 c43 8 43 20 0 35 l-34 11 0 97 c1 109
-17 176 -80 297 -49 95 -172 217 -269 268 -90 47 -123 49 -73 6 19 -17 59 -46
88 -65 30 -19 85 -66 122 -104 110 -111 179 -277 180 -427 0 -45 -3 -53 -19
-53 -16 0 -20 13 -30 113 -20 193 -20 194 -66 -80 -5 -28 -12 -33 -67 -52 -34
-12 -65 -21 -68 -21 -4 0 -7 53 -7 118 1 144 -32 283 -96 412 -23 47 -41 94
-40 105 1 11 -1 14 -4 7 -3 -8 -25 6 -62 40 -37 34 -79 61 -117 76 -64 24 -75
24 -143 11z m119 -55 c142 -42 272 -262 299 -508 5 -42 6 -225 3 -407 l-5
-329 -348 0 -347 0 -1 52 c0 29 -4 116 -9 193 -17 274 -15 484 7 592 54 264
170 414 327 422 11 1 44 -6 74 -15z"/>
<path d="M1185 1125 c9 -200 26 -623 28 -730 2 -60 4 -10 5 112 2 232 -13 585
-28 669 -7 39 -8 28 -5 -51z"/>
</g>
</svg>
