<?xml version="1.0" standalone="no"?>
<!DOCTYPE svg PUBLIC "-//W3C//DTD SVG 20010904//EN"
 "http://www.w3.org/TR/2001/REC-SVG-20010904/DTD/svg10.dtd">
<svg version="1.0" xmlns="http://www.w3.org/2000/svg"
 width="698.000000pt" height="736.000000pt" viewBox="0 0 698.000000 736.000000"
 preserveAspectRatio="xMidYMid meet">

<g transform="translate(0.000000,736.000000) scale(0.100000,-0.100000)"
fill="#000000" stroke="none">
<path d="M5190 6867 c-85 -42 -237 -208 -359 -390 -117 -175 -331 -572 -363
-674 -7 -24 -16 -43 -19 -43 -4 0 -13 -21 -20 -46 -10 -33 -23 -51 -46 -65
-37 -23 -44 -40 -13 -32 11 3 20 11 20 18 0 7 9 15 19 18 11 3 22 17 26 36 4
17 10 31 15 31 5 0 10 6 13 13 2 6 2 1 0 -11 -2 -13 0 -21 5 -18 6 3 9 -2 8
-11 -1 -14 12 -20 57 -28 37 -6 62 -16 68 -27 6 -10 17 -18 24 -18 8 0 15 -5
15 -11 0 -6 7 -9 15 -5 8 3 15 1 15 -5 0 -5 10 -13 22 -18 13 -5 23 -14 24
-22 0 -8 2 -22 2 -32 1 -10 6 -16 11 -13 11 7 34 -47 34 -82 1 -66 -6 -208
-10 -219 -3 -7 -13 -13 -22 -13 -18 -1 -61 -30 -43 -30 27 0 10 -18 -23 -24
-19 -4 -35 -11 -35 -16 0 -13 -31 -28 -71 -35 -18 -3 -38 -10 -44 -15 -14 -11
-162 8 -195 26 -14 7 -19 13 -12 14 6 0 12 7 12 16 0 9 -8 14 -17 13 -33 -3
-42 1 -70 30 -68 71 -72 86 -31 122 17 16 27 29 20 29 -6 0 -16 -8 -21 -17 -6
-10 -11 -13 -11 -8 0 6 -10 -3 -21 -20 -12 -17 -18 -22 -14 -10 10 29 16 95 6
71 -8 -21 -18 -12 -16 14 0 8 -4 18 -10 23 -6 4 -5 11 5 18 11 8 12 12 3 16
-7 2 -13 11 -13 19 0 23 -16 16 -55 -22 -44 -43 -107 -73 -151 -74 -50 0 -101
27 -161 85 -51 49 -55 56 -50 87 31 176 32 320 2 435 -35 134 -115 251 -215
312 l-49 30 -32 -22 c-18 -12 -44 -44 -58 -72 -24 -45 -26 -60 -25 -165 0
-102 4 -125 31 -205 17 -49 48 -125 68 -169 52 -114 68 -184 63 -286 -4 -76
-9 -95 -49 -175 -41 -84 -44 -95 -43 -170 0 -66 8 -105 47 -227 54 -169 81
-279 96 -393 35 -256 167 -406 451 -512 36 -13 93 -40 127 -58 88 -48 168 -61
263 -41 89 19 198 60 234 90 l26 21 -33 65 c-19 36 -64 119 -101 184 -36 66
-66 126 -66 134 0 8 33 -32 74 -89 90 -127 180 -227 210 -235 26 -6 129 53
376 214 266 173 431 300 459 351 21 38 19 192 -3 256 -43 125 -161 252 -298
321 -37 19 -57 23 -87 18 -57 -9 -123 23 -157 77 -25 40 -27 52 -30 170 -3
108 -7 134 -27 180 -27 60 -83 121 -128 141 -32 14 -38 38 -13 59 20 16 106
132 168 224 63 94 148 269 185 383 27 81 39 103 97 169 72 83 124 179 124 231
0 40 -33 108 -59 122 -33 17 -103 11 -151 -13z m-1070 -1457 c0 -5 -7 -10 -16
-10 -8 0 -12 5 -9 10 3 6 10 10 16 10 5 0 9 -4 9 -10z"/>
<path d="M2293 6690 c-53 -21 -78 -138 -58 -275 11 -78 27 -91 19 -16 -4 46
-3 62 5 57 6 -4 11 -19 12 -34 0 -15 3 -20 6 -12 18 57 58 107 69 89 4 -6 0
-15 -7 -20 -8 -5 -9 -9 -3 -9 16 0 34 22 34 44 0 19 1 19 20 -2 11 -12 20 -24
20 -27 0 -10 28 -35 38 -35 6 0 13 -6 15 -12 4 -9 6 -8 6 2 2 35 -126 261
-147 259 -4 0 -17 -4 -29 -9z m140 -191 c4 -16 3 -18 -8 -9 -7 6 -15 20 -18
31 -4 16 -3 18 8 9 7 -6 15 -20 18 -31z"/>
<path d="M1385 6580 c-20 -23 -31 -108 -21 -164 6 -32 77 -148 111 -182 8 -9
29 -36 46 -60 17 -25 33 -43 36 -40 3 3 -7 24 -22 46 -26 38 -27 41 -11 59 11
13 14 21 7 26 -17 10 -13 35 5 35 9 0 14 8 13 18 -3 33 1 41 16 35 10 -3 15 0
13 8 -2 8 3 13 10 11 19 -3 52 17 49 30 -1 7 4 13 11 14 6 1 17 2 22 3 6 0 10
8 10 16 0 23 11 18 60 -26 27 -26 40 -44 32 -46 -6 -3 -10 -9 -6 -14 3 -5 12
-2 21 6 14 14 10 22 -43 76 -123 124 -201 169 -295 169 -33 0 -51 -5 -64 -20z
m245 -80 c0 -5 -4 -10 -10 -10 -5 0 -10 5 -10 10 0 6 5 10 10 10 6 0 10 -4 10
-10z m45 -30 c3 -6 -1 -7 -9 -4 -18 7 -21 14 -7 14 6 0 13 -4 16 -10z m-155
-148 c0 -13 -12 -22 -22 -16 -10 6 -1 24 13 24 5 0 9 -4 9 -8z m-48 -46 c-3
-5 -9 -1 -13 10 -12 31 -10 39 5 19 8 -11 12 -24 8 -29z m37 -35 c-16 -5 -33
15 -24 30 6 9 12 7 22 -7 9 -13 10 -20 2 -23z"/>
<path d="M5840 6581 c-110 -59 -286 -286 -314 -405 -6 -24 -4 -27 9 -22 9 3
19 6 21 6 3 0 2 5 -2 12 -5 8 -2 9 10 5 14 -6 17 -3 12 8 -3 10 -2 13 5 10 5
-4 7 -14 5 -23 -7 -21 13 -53 21 -34 8 19 26 14 20 -7 -2 -11 3 -25 13 -34 12
-10 16 -23 13 -36 -4 -15 -1 -21 11 -21 10 0 14 -4 11 -10 -3 -5 -1 -10 5 -10
6 0 8 -5 4 -11 -4 -7 -9 -7 -13 -1 -3 5 -17 12 -31 16 -17 5 -21 4 -11 -2 8
-6 10 -15 6 -23 -6 -9 -3 -11 8 -6 21 8 22 -9 3 -28 -12 -12 -16 -12 -26 0
-10 12 -16 13 -27 4 -11 -10 -11 -14 2 -29 8 -9 15 -20 15 -24 0 -4 -11 6 -24
21 -13 15 -28 25 -32 20 -4 -4 -2 -13 4 -19 15 -15 16 -28 2 -28 -5 0 -10 7
-10 16 0 12 -6 15 -22 11 -23 -6 -60 13 -57 29 3 21 -2 24 -22 14 -29 -16 -33
-7 -14 29 8 17 13 31 10 31 -3 0 -34 -27 -69 -61 -75 -71 -82 -76 -161 -119
-98 -53 -160 -124 -196 -225 -26 -74 -15 -100 47 -118 116 -34 288 41 441 192
47 46 123 175 123 209 0 6 32 39 71 74 190 168 291 280 333 372 39 84 41 115
14 156 -49 72 -138 98 -208 61z"/>
<path d="M2370 6470 c0 -5 7 -10 16 -10 8 0 12 5 9 10 -3 6 -10 10 -16 10 -5
0 -9 -4 -9 -10z"/>
<path d="M1690 6425 c0 -3 9 -15 20 -27 11 -13 20 -16 20 -9 0 7 -6 19 -14 27
-15 14 -26 18 -26 9z"/>
<path d="M2481 6394 c0 -11 3 -14 6 -6 3 7 2 16 -1 19 -3 4 -6 -2 -5 -13z"/>
<path d="M1710 6350 c0 -5 5 -10 10 -10 6 0 10 5 10 10 0 6 -4 10 -10 10 -5 0
-10 -4 -10 -10z"/>
<path d="M2266 6295 c-3 -9 -6 -24 -5 -33 0 -9 5 -4 10 12 9 32 6 48 -5 21z"/>
<path d="M716 6227 c-45 -48 -61 -101 -46 -156 14 -54 144 -194 172 -186 9 3
19 1 23 -4 4 -7 -1 -8 -12 -4 -16 6 -16 5 -4 -10 7 -9 17 -15 21 -12 4 3 10
-2 14 -10 3 -8 16 -15 30 -15 13 0 26 -6 29 -12 2 -7 8 -10 12 -6 12 11 -5 28
-29 28 -40 0 -55 40 -23 61 5 4 11 18 12 32 4 32 14 49 25 42 4 -3 16 -2 25 1
12 5 13 9 5 14 -9 5 -6 10 9 15 25 8 27 20 4 29 -13 5 -7 12 27 30 45 22 45
22 73 3 55 -37 37 -9 -35 57 -90 81 -192 136 -256 136 -38 0 -49 -5 -76 -33z
m285 -104 c13 -17 13 -17 -6 -3 -11 8 -22 16 -24 17 -2 2 0 3 6 3 6 0 17 -8
24 -17z m39 -23 c0 -5 -2 -10 -4 -10 -3 0 -8 5 -11 10 -3 6 -1 10 4 10 6 0 11
-4 11 -10z m-53 -16 c-3 -3 -12 -4 -19 -1 -8 3 -5 6 6 6 11 1 17 -2 13 -5z
m-32 -14 c3 -5 -1 -10 -9 -10 -9 0 -16 5 -16 10 0 6 4 10 9 10 6 0 13 -4 16
-10z m-76 -149 c7 -5 10 -14 6 -20 -5 -9 -10 -9 -21 0 -26 22 -14 38 15 20z"/>
<path d="M1550 6219 c0 -5 5 -7 10 -4 6 3 10 8 10 11 0 2 -4 4 -10 4 -5 0 -10
-5 -10 -11z"/>
<path d="M1910 6219 c0 -5 5 -7 10 -4 6 3 10 8 10 11 0 2 -4 4 -10 4 -5 0 -10
-5 -10 -11z"/>
<path d="M2541 6110 c1 -39 -1 -73 -4 -77 -4 -3 -7 5 -7 20 0 14 -4 29 -10 32
-6 4 -10 -8 -10 -29 0 -20 -4 -36 -10 -36 -5 0 -10 10 -10 23 0 12 -4 17 -8
11 -4 -6 -27 -18 -51 -28 -40 -16 -43 -16 -37 0 5 14 4 15 -9 4 -8 -7 -15 -9
-15 -4 0 4 -7 -1 -16 -12 -14 -18 -15 -17 -10 21 5 36 4 38 -9 22 -13 -18 -14
-18 -18 5 -2 12 -2 5 0 -17 2 -21 7 -44 12 -50 4 -5 15 -31 25 -56 21 -59 80
-119 115 -119 59 1 101 61 101 146 0 97 -12 214 -22 214 -5 0 -8 -32 -7 -70z
m-127 -206 c3 -8 2 -12 -4 -9 -6 3 -10 10 -10 16 0 14 7 11 14 -7z"/>
<path d="M1970 6140 c0 -5 3 -10 8 -10 4 0 18 -25 32 -55 14 -30 27 -55 30
-55 3 0 5 -22 6 -48 0 -48 0 -48 -19 -29 -15 15 -18 24 -9 37 5 9 7 22 3 28
-4 7 -12 -1 -20 -20 -11 -24 -11 -32 -1 -38 9 -6 10 -12 1 -26 -6 -11 -11 -13
-11 -6 0 6 -5 12 -11 12 -6 0 -9 -9 -6 -19 4 -16 -4 -23 -34 -35 -22 -9 -46
-16 -53 -16 -19 0 -30 -32 -14 -42 10 -6 8 -8 -4 -8 -10 0 -18 5 -18 11 0 5
-5 7 -12 3 -8 -5 -9 -2 -5 10 4 10 3 15 -3 11 -10 -6 -50 29 -50 44 0 9 -30
24 -36 18 -7 -6 82 -96 146 -147 107 -87 222 -129 265 -97 16 12 20 27 20 74
0 83 -29 150 -150 347 -38 62 -55 79 -55 56z"/>
<path d="M2290 6133 c0 -5 5 -15 10 -23 8 -12 10 -11 10 8 0 12 -4 22 -10 22
-5 0 -10 -3 -10 -7z"/>
<path d="M1040 6050 c0 -5 7 -10 16 -10 8 0 12 5 9 10 -3 6 -10 10 -16 10 -5
0 -9 -4 -9 -10z"/>
<path d="M1005 6040 c3 -5 8 -10 11 -10 2 0 4 5 4 10 0 6 -5 10 -11 10 -5 0
-7 -4 -4 -10z"/>
<path d="M1120 6020 c6 -11 12 -20 14 -20 2 0 2 9 -1 20 -3 11 -9 20 -15 20
-5 0 -4 -9 2 -20z"/>
<path d="M1981 6014 c0 -11 3 -14 6 -6 3 7 2 16 -1 19 -3 4 -6 -2 -5 -13z"/>
<path d="M1150 5999 c0 -5 5 -7 10 -4 6 3 10 8 10 11 0 2 -4 4 -10 4 -5 0 -10
-5 -10 -11z"/>
<path d="M1180 5969 c0 -5 5 -7 10 -4 6 3 10 8 10 11 0 2 -4 4 -10 4 -5 0 -10
-5 -10 -11z"/>
<path d="M6205 5899 c-85 -20 -487 -336 -611 -479 -89 -103 -144 -206 -144
-273 0 -37 4 -49 22 -58 33 -18 144 -4 213 26 215 96 494 317 656 521 62 78
78 209 29 246 -30 22 -110 31 -165 17z m-226 -331 c36 -21 38 -24 37 -72 -2
-62 -7 -72 -54 -92 -27 -11 -42 -13 -54 -5 -10 6 -23 11 -30 11 -17 1 -62 71
-50 79 17 11 21 52 6 58 -8 3 -14 9 -14 14 0 5 9 4 20 -3 16 -10 22 -10 32 4
7 9 24 19 38 21 14 2 26 5 28 6 2 0 20 -9 41 -21z m51 -152 c0 -2 -7 -6 -15
-10 -8 -3 -15 -1 -15 4 0 6 7 10 15 10 8 0 15 -2 15 -4z"/>
<path d="M1810 5880 c0 -5 5 -10 10 -10 6 0 10 5 10 10 0 6 -4 10 -10 10 -5 0
-10 -4 -10 -10z"/>
<path d="M2523 5775 c-42 -7 -95 -26 -126 -44 -58 -33 -172 -147 -197 -196 -8
-17 -19 -33 -23 -36 -5 -4 -7 -15 -4 -25 4 -17 6 -17 12 4 4 12 11 22 16 22 5
0 9 6 9 13 0 8 9 24 19 36 17 19 22 21 40 9 25 -15 26 -24 6 -32 -9 -3 -15 0
-15 9 0 8 -4 15 -9 15 -11 0 -36 -59 -27 -67 3 -3 6 -1 6 7 0 8 9 11 29 7 16
-3 32 -3 36 1 3 4 20 7 36 8 23 1 32 -4 39 -22 6 -14 15 -22 23 -18 11 4 13
-1 10 -19 -5 -23 -1 -25 49 -32 71 -9 127 -35 128 -59 0 -12 5 -16 15 -12 15
5 26 -21 30 -73 3 -48 5 -52 14 -46 13 7 67 -46 76 -75 4 -14 3 -25 -5 -30
-16 -10 -4 -29 26 -40 15 -6 24 -18 24 -32 1 -23 21 -58 34 -58 3 0 6 8 6 18
0 14 2 15 9 2 6 -8 7 -18 5 -22 -10 -15 -12 -92 -4 -145 3 -29 3 -56 -2 -61
-5 -5 -2 -14 7 -22 17 -14 20 -46 5 -55 -5 -3 -10 -11 -10 -17 0 -7 5 -6 14 1
10 8 16 9 21 1 3 -5 2 -10 -2 -10 -5 0 -14 -10 -22 -21 -11 -19 -11 -21 3 -16
10 4 16 1 16 -7 0 -8 -6 -16 -14 -19 -23 -9 -38 -208 -16 -215 9 -3 -7 -41
-22 -53 -12 -8 -68 -128 -68 -143 0 -8 5 -16 12 -18 7 -3 9 -11 3 -24 -7 -17
-8 -17 -12 -1 -6 23 -30 22 -43 -3 -6 -11 -17 -20 -25 -20 -11 0 -15 -13 -15
-53 0 -39 -5 -59 -19 -74 -11 -12 -18 -24 -15 -27 2 -3 -2 -2 -8 4 -22 18 -41
12 -35 -12 5 -20 4 -20 -6 -6 -10 14 -12 14 -29 -7 -10 -13 -18 -34 -18 -48 0
-14 -7 -27 -15 -31 -8 -3 -15 -1 -15 3 0 5 -7 11 -15 15 -10 4 -24 -8 -42 -37
-31 -51 -39 -56 -78 -58 -25 0 -27 -2 -10 -8 15 -6 5 -9 -35 -13 -30 -3 -56
-11 -58 -17 -2 -6 -19 -11 -37 -11 -18 0 -35 -6 -38 -12 -4 -10 -7 -10 -18 0
-19 18 -28 15 -39 -13 -5 -14 -14 -25 -20 -25 -14 0 -13 17 3 23 7 4 6 6 -5 6
-9 1 -18 -3 -20 -8 -1 -5 -23 -11 -48 -14 -25 -3 -37 -4 -27 -1 10 3 30 12 45
21 l27 15 -32 -6 c-19 -3 -33 -1 -33 4 0 6 -10 10 -22 10 -18 0 -20 -2 -8 -10
23 -15 8 -19 -37 -10 -42 7 -61 -3 -25 -14 9 -3 -16 -4 -55 -3 -58 2 -76 7
-89 22 -10 13 -14 15 -11 5 4 -13 -5 -16 -49 -17 -30 -1 -52 2 -50 6 6 9 -84
-2 -102 -12 -8 -5 -12 -2 -12 8 0 11 -5 15 -15 12 -8 -4 -17 -2 -20 3 -4 6 0
10 8 10 23 0 28 26 9 43 -9 8 -39 18 -67 21 -128 14 -147 18 -134 27 8 5 24 9
37 9 12 0 22 5 22 11 0 11 -50 6 -86 -8 -8 -3 -14 1 -14 10 0 11 22 18 88 27
134 19 172 31 77 24 -90 -6 -203 -30 -225 -49 -8 -7 -26 -16 -40 -20 -26 -8
-79 -45 -115 -81 -32 -32 -85 -107 -85 -120 0 -23 54 -77 95 -95 98 -43 293
-25 443 42 102 46 131 63 119 72 -7 5 -2 6 11 2 14 -4 43 0 70 11 34 13 75 18
147 19 99 0 101 0 195 -46 52 -26 111 -49 130 -53 48 -8 130 8 272 54 116 38
267 74 443 105 221 40 367 182 460 450 10 28 36 84 59 125 40 74 41 77 40 170
-1 78 -6 109 -29 170 -34 93 -72 160 -91 160 -13 0 -109 -51 -189 -101 -16
-10 -37 -22 -45 -26 -8 -4 -35 -19 -60 -33 -25 -15 -60 -31 -77 -38 -28 -9
-34 -8 -42 6 -8 14 -13 15 -30 5 -11 -7 -27 -10 -36 -7 -24 10 -17 22 10 16
15 -2 25 0 25 7 0 8 11 10 35 5 23 -4 35 -2 35 5 0 6 9 11 20 11 11 0 20 4 20
9 0 5 13 14 29 21 16 6 39 22 52 36 12 13 28 24 34 24 20 0 153 129 159 155 4
14 1 35 -5 48 -26 49 -153 252 -161 255 -4 2 -8 9 -8 15 -1 11 -32 58 -182
274 -90 130 -182 237 -210 244 -60 16 -127 17 -195 4z m-190 -159 c3 -8 3 -17
0 -20 -7 -7 -33 13 -33 25 0 15 27 10 33 -5z m-6 -56 c5 0 9 -9 9 -19 0 -12
-7 -19 -17 -18 -10 1 -15 7 -12 14 3 8 -4 22 -16 32 -11 10 -21 25 -21 32 0 8
10 2 24 -13 13 -16 27 -28 33 -28z m453 -20 c0 -5 -4 -10 -10 -10 -5 0 -10 5
-10 10 0 6 5 10 10 10 6 0 10 -4 10 -10z m155 -800 c3 -5 1 -10 -4 -10 -6 0
-11 5 -11 10 0 6 2 10 4 10 3 0 8 -4 11 -10z m-25 -4 c0 -2 -7 -7 -16 -10 -8
-3 -12 -2 -9 4 6 10 25 14 25 6z m84 -15 c4 -5 -3 -7 -14 -4 -23 6 -26 13 -6
13 8 0 17 -4 20 -9z m-60 -10 c3 -5 -4 -11 -17 -14 -12 -2 -30 -8 -39 -12 -10
-4 -18 -3 -18 2 0 5 12 14 28 20 36 14 40 15 46 4z m-34 -335 c0 -3 -4 -8 -10
-11 -5 -3 -10 -1 -10 4 0 6 5 11 10 11 6 0 10 -2 10 -4z m-1630 -516 c0 -5 -4
-10 -10 -10 -5 0 -10 5 -10 10 0 6 5 10 10 10 6 0 10 -4 10 -10z m1363 -57
c-7 -2 -19 -2 -25 0 -7 3 -2 5 12 5 14 0 19 -2 13 -5z m-1503 -12 c0 -6 -4
-13 -10 -16 -5 -3 -10 1 -10 9 0 9 5 16 10 16 6 0 10 -4 10 -9z m50 -12 c0 -5
-4 -9 -10 -9 -5 0 -10 7 -10 16 0 8 5 12 10 9 6 -3 10 -10 10 -16z m277 15
c-3 -3 -12 -4 -19 -1 -8 3 -5 6 6 6 11 1 17 -2 13 -5z m63 -4 c0 -5 -4 -10 -9
-10 -6 0 -13 5 -16 10 -3 6 1 10 9 10 9 0 16 -4 16 -10z m-370 -30 c0 -5 -5
-10 -11 -10 -5 0 -7 5 -4 10 3 6 8 10 11 10 2 0 4 -4 4 -10z m1150 -10 c0 -5
-2 -10 -4 -10 -3 0 -8 5 -11 10 -3 6 -1 10 4 10 6 0 11 -4 11 -10z m-1228 -22
c-7 -7 -12 -8 -12 -2 0 14 12 26 19 19 2 -3 -1 -11 -7 -17z m1178 12 c0 -5 -2
-10 -4 -10 -3 0 -8 5 -11 10 -3 6 -1 10 4 10 6 0 11 -4 11 -10z m-531 -28 c-7
-3 -23 -9 -34 -15 -20 -10 -20 -9 -2 11 12 12 25 18 35 14 13 -5 14 -6 1 -10z
m-569 -12 c0 -5 -4 -10 -10 -10 -5 0 -10 5 -10 10 0 6 5 10 10 10 6 0 10 -4
10 -10z m963 -23 c7 5 30 6 52 2 45 -7 40 -10 -28 -14 -36 -2 -53 2 -70 17
l-22 20 28 -17 c17 -10 33 -13 40 -8z m-553 -6 c0 -5 -9 -7 -20 -4 -11 3 -20
7 -20 9 0 2 9 4 20 4 11 0 20 -4 20 -9z m840 -5 c0 -2 -9 -6 -20 -9 -11 -3
-18 -1 -14 4 5 9 34 13 34 5z m-943 -12 c-3 -3 -12 -4 -19 -1 -8 3 -5 6 6 6
11 1 17 -2 13 -5z m735 -16 c-8 -8 -17 -8 -34 0 -22 10 -21 11 12 11 26 1 31
-2 22 -11z m121 5 c-7 -2 -19 -2 -25 0 -7 3 -2 5 12 5 14 0 19 -2 13 -5z
m-792 -21 c-7 -2 -18 1 -23 6 -8 8 -4 9 13 5 13 -4 18 -8 10 -11z m712 1 c-7
-2 -19 -2 -25 0 -7 3 -2 5 12 5 14 0 19 -2 13 -5z m-753 -13 c0 -5 -4 -10 -10
-10 -5 0 -10 5 -10 10 0 6 5 10 10 10 6 0 10 -4 10 -10z"/>
<path d="M1486 5735 c40 -38 44 -40 44 -25 0 15 -52 59 -68 60 -7 0 3 -16 24
-35z"/>
<path d="M1455 5710 c3 -5 8 -10 11 -10 2 0 4 5 4 10 0 6 -5 10 -11 10 -5 0
-7 -4 -4 -10z"/>
<path d="M1533 5685 c-18 -20 -16 -30 2 -15 9 7 19 10 22 6 4 -4 1 -12 -7 -17
-12 -9 -12 -10 3 -5 12 4 17 2 15 -6 -5 -14 7 -29 36 -45 12 -7 15 -13 7 -17
-6 -4 -11 -2 -11 3 0 17 -21 13 -37 -6 -12 -16 -13 -15 -7 8 3 17 1 30 -7 35
-9 5 -11 2 -6 -9 3 -9 2 -19 -4 -23 -6 -3 -8 -12 -5 -20 3 -7 1 -16 -4 -19 -6
-4 -10 -1 -10 6 0 23 -22 -8 -25 -35 -2 -14 -6 -30 -10 -35 -9 -15 -42 -14
-48 2 -3 8 -11 5 -26 -10 -22 -23 -27 -43 -11 -43 5 0 7 -6 4 -13 -2 -7 4 -22
14 -32 10 -11 20 -24 21 -30 17 -54 174 -155 242 -155 34 0 54 27 64 87 10 64
-11 142 -63 231 -39 67 -122 173 -134 172 -2 -1 -9 -7 -15 -15z m61 -131 c9
-24 7 -28 -9 -14 -17 14 -20 30 -6 30 5 0 12 -7 15 -16z m46 1 c20 -24 6 -28
-15 -5 -10 11 -13 20 -8 20 6 0 16 -7 23 -15z m-200 -94 c0 -12 -20 -25 -27
-18 -7 7 6 27 18 27 5 0 9 -4 9 -9z"/>
<path d="M4440 5680 c0 -5 5 -10 10 -10 6 0 10 5 10 10 0 6 -4 10 -10 10 -5 0
-10 -4 -10 -10z"/>
<path d="M4310 5603 c0 -5 -10 -15 -22 -21 -17 -8 -18 -11 -7 -11 19 -1 45 26
35 36 -3 3 -6 2 -6 -4z"/>
<path d="M435 5579 c-71 -34 -82 -92 -35 -185 60 -120 227 -261 531 -447 83
-51 91 -54 108 -33 10 12 6 14 -23 13 -49 -1 -55 10 -21 38 34 27 17 33 -24 9
-26 -15 -29 -15 -64 9 -24 16 -33 28 -26 33 6 4 16 -1 21 -10 5 -9 14 -14 19
-10 6 4 6 11 -2 20 -7 9 -8 14 -1 14 6 0 12 -5 14 -11 3 -8 10 -8 26 2 19 12
25 11 51 -8 24 -18 30 -20 35 -8 3 9 0 15 -8 15 -8 0 -13 12 -12 33 1 24 5 31
18 29 14 -2 16 6 13 55 -2 32 -8 59 -14 61 -7 2 -6 10 2 23 12 20 57 27 57 9
0 -5 -11 -10 -25 -10 -14 0 -25 -3 -25 -7 0 -5 11 -8 25 -8 14 0 25 3 25 6 0
7 46 29 60 29 6 0 10 -4 10 -10 0 -5 -12 -10 -27 -10 -25 -1 -26 -2 -9 -12 14
-8 24 -8 37 1 27 16 33 14 82 -19 25 -16 48 -30 51 -30 3 0 15 -8 25 -17 50
-46 101 -79 101 -66 0 9 -25 27 -130 96 -123 81 -123 81 -205 120 -99 49 -131
62 -210 87 -63 20 -122 59 -193 127 -32 31 -101 72 -137 82 -54 15 -73 13
-120 -10z m555 -259 c11 -8 7 -9 -15 -4 -37 8 -45 14 -19 14 10 0 26 -5 34
-10z m55 -19 c10 -17 -12 -21 -25 -6 -10 12 -10 15 3 15 9 0 18 -4 22 -9z
m-78 -7 c-3 -3 -12 -4 -19 -1 -8 3 -5 6 6 6 11 1 17 -2 13 -5z m137 -33 c3 -4
-6 -6 -19 -3 -14 2 -25 6 -25 8 0 8 39 4 44 -5z m-329 -171 c-3 -5 -10 -10
-16 -10 -5 0 -9 5 -9 10 0 6 7 10 16 10 8 0 12 -4 9 -10z m55 -10 c0 -5 -5
-10 -11 -10 -5 0 -7 5 -4 10 3 6 8 10 11 10 2 0 4 -4 4 -10z m85 -20 c3 -5 -1
-10 -10 -10 -9 0 -13 5 -10 10 3 6 8 10 10 10 2 0 7 -4 10 -10z m75 -10 c0 -5
8 -10 17 -10 9 0 14 -2 12 -5 -3 -2 -22 -2 -43 2 -26 4 -33 9 -24 14 18 12 38
11 38 -1z m-128 -15 c0 -5 -5 -11 -10 -13 -5 -1 -9 4 -9 13 0 9 4 14 9 13 5
-2 10 -8 10 -13z"/>
<path d="M4360 5580 c0 -5 7 -10 15 -10 8 0 15 5 15 10 0 6 -7 10 -15 10 -8 0
-15 -4 -15 -10z"/>
<path d="M4238 5553 c-21 -5 -24 -23 -4 -23 8 0 16 7 20 15 3 8 4 14 3 14 -1
-1 -10 -3 -19 -6z"/>
<path d="M4176 5510 c-17 -18 -17 -20 -1 -42 l17 -23 -6 28 c-5 20 -2 29 9 33
8 4 15 10 15 15 0 14 -13 10 -34 -11z"/>
<path d="M4220 5508 c0 -9 -6 -18 -12 -21 -7 -2 -10 -8 -5 -13 13 -14 38 19
27 36 -8 13 -10 13 -10 -2z"/>
<path d="M1370 5495 c0 -8 5 -15 10 -15 6 0 10 7 10 15 0 8 -4 15 -10 15 -5 0
-10 -7 -10 -15z"/>
<path d="M2147 5453 c-11 -10 -8 -43 3 -43 6 0 10 11 10 25 0 26 -2 29 -13 18z"/>
<path d="M2191 5444 c0 -11 3 -14 6 -6 3 7 2 16 -1 19 -3 4 -6 -2 -5 -13z"/>
<path d="M4207 5444 c-11 -11 -8 -26 3 -19 6 3 10 1 10 -6 0 -7 3 -10 6 -6 3
3 2 13 -3 22 -5 8 -12 12 -16 9z"/>
<path d="M2143 5366 c0 -15 3 -29 8 -32 11 -7 11 27 0 45 -6 9 -8 5 -8 -13z"/>
<path d="M2191 5354 c0 -11 3 -14 6 -6 3 7 2 16 -1 19 -3 4 -6 -2 -5 -13z"/>
<path d="M1196 5191 c-4 -5 -2 -12 3 -15 5 -4 12 -2 15 3 4 5 2 12 -3 15 -5 4
-12 2 -15 -3z"/>
<path d="M1988 5183 c6 -2 18 -2 25 0 6 3 1 5 -13 5 -14 0 -19 -2 -12 -5z"/>
<path d="M1780 5169 c0 -5 5 -7 10 -4 6 3 10 8 10 11 0 2 -4 4 -10 4 -5 0 -10
-5 -10 -11z"/>
<path d="M1240 5160 c20 -13 33 -13 25 0 -3 6 -14 10 -23 10 -15 0 -15 -2 -2
-10z"/>
<path d="M1710 5159 c0 -5 5 -7 10 -4 6 3 10 8 10 11 0 2 -4 4 -10 4 -5 0 -10
-5 -10 -11z"/>
<path d="M1198 5143 c7 -3 16 -2 19 1 4 3 -2 6 -13 5 -11 0 -14 -3 -6 -6z"/>
<path d="M1625 5100 c-3 -5 -1 -10 4 -10 6 0 11 5 11 10 0 6 -2 10 -4 10 -3 0
-8 -4 -11 -10z"/>
<path d="M6160 5025 c-305 -55 -499 -128 -539 -202 -20 -38 -12 -65 29 -105
l41 -38 92 0 c160 0 359 50 522 130 136 67 198 114 190 143 -22 76 -153 104
-335 72z m-62 -111 c12 -8 22 -23 22 -33 0 -9 5 -22 12 -29 9 -9 9 -12 0 -12
-7 0 -12 -5 -12 -12 0 -21 -33 -48 -58 -48 -33 0 -82 56 -82 94 0 20 4 27 14
23 11 -4 13 -1 9 10 -5 13 -1 14 25 8 21 -4 32 -3 32 4 0 15 12 14 38 -5z"/>
<path d="M1490 5020 c0 -5 5 -10 10 -10 6 0 10 5 10 10 0 6 -4 10 -10 10 -5 0
-10 -4 -10 -10z"/>
<path d="M950 4999 l-25 -21 30 7 c36 8 42 12 29 25 -5 5 -19 1 -34 -11z"/>
<path d="M1000 4940 c0 -5 5 -10 10 -10 6 0 10 5 10 10 0 6 -4 10 -10 10 -5 0
-10 -4 -10 -10z"/>
<path d="M1035 4890 c-3 -5 -2 -10 4 -10 5 0 13 5 16 10 3 6 2 10 -4 10 -5 0
-13 -4 -16 -10z"/>
<path d="M1089 4860 c13 -11 29 -20 36 -20 7 0 18 -7 25 -15 7 -8 20 -15 29
-15 22 1 -28 39 -50 40 -9 0 -22 7 -29 15 -7 8 -18 15 -24 15 -6 -1 0 -10 13
-20z"/>
<path d="M1215 4790 c3 -5 11 -10 16 -10 6 0 7 5 4 10 -3 6 -11 10 -16 10 -6
0 -7 -4 -4 -10z"/>
<path d="M1264 4765 c11 -8 24 -15 30 -15 5 0 1 7 -10 15 -10 8 -23 14 -29 14
-5 0 -1 -6 9 -14z"/>
<path d="M1876 3995 c-3 -9 0 -15 9 -15 16 0 20 16 6 24 -5 3 -11 -1 -15 -9z"/>
<path d="M1815 3930 c3 -5 8 -10 11 -10 2 0 4 5 4 10 0 6 -5 10 -11 10 -5 0
-7 -4 -4 -10z"/>
<path d="M1565 3922 c6 -5 37 -13 70 -16 40 -4 55 -3 44 3 -22 14 -127 26
-114 13z"/>
<path d="M1715 3900 c3 -5 13 -10 21 -10 8 0 12 5 9 10 -3 6 -13 10 -21 10 -8
0 -12 -4 -9 -10z"/>
<path d="M1405 3890 c4 -6 11 -8 16 -5 14 9 11 15 -7 15 -8 0 -12 -5 -9 -10z"/>
<path d="M1785 3890 c3 -5 10 -10 16 -10 5 0 9 5 9 10 0 6 -7 10 -16 10 -8 0
-12 -4 -9 -10z"/>
<path d="M1395 3850 c4 -7 28 -8 63 -4 79 9 78 14 -2 14 -44 0 -65 -4 -61 -10z"/>
<path d="M1671 3841 c-10 -6 -10 -10 -1 -16 13 -8 24 -1 19 14 -3 6 -10 7 -18
2z"/>
<path d="M1827 3745 c-5 -10 0 -15 14 -15 12 0 19 5 17 12 -6 18 -25 20 -31 3z"/>
<path d="M2500 3611 c-69 -18 -200 -79 -207 -96 -5 -14 27 -83 72 -155 19 -30
34 -61 35 -67 0 -7 4 -13 9 -13 5 0 12 6 15 13 3 6 3 2 0 -11 -4 -16 3 -36 20
-62 14 -22 26 -44 26 -50 0 -5 5 -10 10 -10 6 0 10 -7 10 -15 0 -27 18 -16 33
23 15 35 16 35 16 10 1 -16 -3 -28 -9 -28 -5 0 -10 -7 -10 -15 0 -8 5 -15 10
-15 6 0 10 4 10 8 0 4 11 9 24 10 17 1 27 -5 31 -18 4 -11 11 -20 17 -20 5 0
8 7 4 15 -3 8 2 19 12 24 22 12 99 17 108 8 4 -4 14 -2 21 5 14 11 26 3 36
-25 1 -5 22 -9 45 -10 28 -1 42 -7 42 -16 0 -7 6 -11 14 -8 8 3 17 -1 20 -9 3
-8 15 -14 26 -14 11 0 20 -7 20 -15 0 -8 8 -15 19 -15 10 0 24 -7 31 -15 7 -9
19 -14 26 -11 7 3 16 1 19 -4 4 -6 0 -10 -7 -11 -21 -1 45 -28 70 -29 15 0 27
-11 39 -35 9 -19 23 -35 30 -35 7 0 13 -7 13 -15 0 -9 10 -20 23 -25 27 -11
57 -35 57 -44 0 -4 7 -14 15 -22 8 -9 15 -12 15 -7 0 4 11 -9 25 -30 14 -20
28 -37 30 -37 3 0 2 15 0 33 l-5 32 10 -29 c5 -16 7 -33 4 -38 -3 -5 -1 -14 4
-21 14 -19 21 -56 11 -61 -5 -2 -4 -3 3 -2 17 3 23 47 8 56 -6 4 -10 18 -8 31
4 22 6 22 20 -11 26 -59 31 -90 13 -90 -8 0 -15 -6 -15 -14 0 -8 -3 -22 -6
-30 -4 -12 -2 -15 9 -10 8 3 18 15 21 27 4 17 8 19 18 9 9 -9 9 -15 0 -24 -7
-7 -12 -21 -12 -32 0 -20 2 -19 20 4 16 20 19 21 14 5 -4 -11 -11 -25 -15 -30
-10 -14 -13 -116 -4 -138 4 -10 5 -38 2 -62 -2 -25 -1 -42 4 -39 5 3 9 18 9
33 0 15 9 45 20 67 l19 39 1 -31 c0 -17 -7 -48 -15 -67 -18 -43 -21 -104 -4
-74 6 10 8 25 5 33 -3 8 -1 14 4 14 20 0 30 74 19 140 -6 36 -15 70 -19 75 -4
6 -11 27 -14 49 -4 21 -12 46 -17 55 -10 18 -47 146 -59 206 -5 22 -13 69 -20
105 -6 36 -18 98 -25 139 -39 207 -168 347 -403 437 -48 19 -118 49 -157 68
-124 62 -183 69 -305 37z m-122 -216 c-3 -3 -9 2 -12 12 -6 14 -5 15 5 6 7 -7
10 -15 7 -18z m52 5 c0 -5 -2 -10 -4 -10 -3 0 -8 5 -11 10 -3 6 -1 10 4 10 6
0 11 -4 11 -10z m-25 -29 c3 -5 1 -12 -5 -16 -5 -3 -10 1 -10 9 0 18 6 21 15
7z m31 -38 c-8 -15 -15 -25 -16 -21 0 12 23 58 27 54 3 -2 -2 -17 -11 -33z
m39 -100 c-9 -8 -19 -13 -22 -9 -9 8 18 37 28 30 5 -3 2 -12 -6 -21z m52 -19
c-3 -3 -12 -4 -19 -1 -8 3 -5 6 6 6 11 1 17 -2 13 -5z m-20 -36 c-3 -8 -6 -5
-6 6 -1 11 2 17 5 13 3 -3 4 -12 1 -19z m80 -6 c12 -7 30 -9 40 -5 15 5 16 4
5 -8 -7 -8 -28 -14 -47 -14 -32 0 -35 2 -35 30 0 17 4 25 8 19 4 -6 17 -16 29
-22z m713 -203 c0 -18 -4 -28 -10 -24 -5 3 -10 20 -10 36 0 18 4 28 10 24 6
-3 10 -20 10 -36z m69 -64 c0 -5 -4 -3 -9 5 -5 8 -9 22 -9 30 0 16 17 -16 18
-35z m-162 13 c-3 -8 -6 -5 -6 6 -1 11 2 17 5 13 3 -3 4 -12 1 -19z m110 -10
c-3 -8 -6 -5 -6 6 -1 11 2 17 5 13 3 -3 4 -12 1 -19z m30 -130 c-3 -8 -6 -5
-6 6 -1 11 2 17 5 13 3 -3 4 -12 1 -19z m141 -326 c1 -34 -2 -49 -11 -49 -12
0 -14 18 -9 85 3 41 18 15 20 -36z"/>
<path d="M2155 3441 c-6 -5 -37 -23 -70 -41 -33 -18 -103 -61 -155 -95 -52
-34 -135 -88 -185 -120 -49 -32 -126 -86 -170 -119 -221 -168 -227 -175 -226
-294 0 -90 13 -140 57 -219 32 -57 145 -173 169 -173 6 0 -15 22 -45 49 -30
27 -52 53 -47 57 4 4 21 -5 37 -21 17 -16 30 -24 30 -17 0 13 -39 52 -53 52
-5 0 -7 7 -3 15 3 8 0 15 -7 15 -9 0 -9 2 1 8 9 6 7 14 -9 31 l-22 23 24 -7
c22 -7 23 -6 9 10 -12 15 -12 18 3 26 9 6 17 17 17 25 0 9 5 12 12 8 7 -5 9
-2 5 9 -3 8 1 21 9 28 8 7 13 18 10 25 -7 19 14 29 26 13 7 -10 8 -8 3 7 -4
14 0 24 10 28 8 3 15 0 15 -7 1 -16 50 40 51 59 1 8 2 17 3 22 3 13 29 56 42
69 7 7 14 18 16 24 3 9 9 9 26 0 20 -10 23 -9 34 14 6 14 17 24 24 21 8 -3 16
-1 19 5 11 17 88 51 134 59 40 7 42 8 13 9 -26 1 -33 5 -30 18 4 22 45 42 95
47 21 2 47 7 58 11 15 5 16 4 6 -3 -11 -8 -10 -12 7 -21 26 -14 35 -14 27 -1
-3 6 0 13 9 16 8 3 12 12 9 20 -3 8 0 14 6 14 6 0 11 -7 11 -15 0 -8 7 -15 15
-15 8 0 15 9 15 19 0 23 30 35 60 26 12 -4 27 -2 35 5 9 7 15 8 20 0 12 -19
40 -10 56 18 13 23 13 30 2 40 -7 7 -13 18 -13 24 0 6 9 1 20 -12 23 -26 25
-41 8 -58 -7 -7 -10 -12 -7 -13 2 0 11 -2 20 -4 12 -2 16 3 13 19 -3 12 1 8 7
-8 9 -23 9 -34 -1 -49 -9 -16 -9 -21 2 -28 9 -6 14 -2 16 11 4 26 22 26 22 0
0 -11 4 -20 8 -20 20 0 20 14 2 40 -11 16 -20 31 -20 35 0 18 -112 167 -171
227 -63 64 -92 80 -114 59z m-108 -101 c-14 -11 -28 -20 -32 -20 -10 0 38 39
49 40 5 0 -3 -9 -17 -20z m233 -30 c0 -5 -2 -10 -4 -10 -3 0 -8 5 -11 10 -3 6
-1 10 4 10 6 0 11 -4 11 -10z m-366 -105 c-10 -8 -23 -15 -28 -15 -6 0 -1 7
10 15 10 8 23 15 28 15 6 0 1 -7 -10 -15z m423 0 c0 -8 -4 -12 -9 -9 -5 3 -6
10 -3 15 9 13 12 11 12 -6z m-370 -11 c-3 -3 -12 -4 -19 -1 -8 3 -5 6 6 6 11
1 17 -2 13 -5z m113 -53 c0 -5 -12 -11 -27 -14 -26 -5 -26 -4 -8 9 22 16 35
18 35 5z m-453 -97 c-3 -3 -12 -4 -19 -1 -8 3 -5 6 6 6 11 1 17 -2 13 -5z
m-112 -74 c-3 -5 -12 -10 -18 -10 -7 0 -6 4 3 10 19 12 23 12 15 0z m-128
-262 c-3 -8 -6 -5 -6 6 -1 11 2 17 5 13 3 -3 4 -12 1 -19z m29 -103 c3 -14 10
-25 15 -25 5 0 9 -4 9 -10 0 -21 -20 -9 -26 15 -3 14 -10 25 -15 25 -5 0 -9 5
-9 10 0 21 20 9 26 -15z m49 -55 c-3 -5 -12 -10 -18 -10 -7 0 -6 4 3 10 19 12
23 12 15 0z m8 -40 c3 -11 1 -20 -4 -20 -5 0 -9 9 -9 20 0 11 2 20 4 20 2 0 6
-9 9 -20z"/>
<path d="M2346 3118 c3 -13 11 -24 15 -26 5 -2 9 -10 9 -18 0 -8 5 -14 10 -14
15 0 12 26 -5 40 -8 7 -15 19 -15 26 0 8 -5 14 -11 14 -6 0 -8 -9 -3 -22z"/>
<path d="M2498 3083 c-6 -8 -9 -16 -6 -19 7 -7 58 14 58 24 0 13 -40 9 -52 -5z"/>
<path d="M2397 3060 c-3 -11 -1 -20 4 -20 5 0 9 9 9 20 0 11 -2 20 -4 20 -2 0
-6 -9 -9 -20z"/>
<path d="M2445 3061 c-3 -5 -1 -12 5 -16 5 -3 10 1 10 9 0 18 -6 21 -15 7z"/>
<path d="M1687 2873 c-12 -12 -7 -22 8 -17 8 4 15 10 15 15 0 11 -14 12 -23 2z"/>
<path d="M1050 2720 c-33 -7 -33 -7 15 -9 63 -2 71 -7 73 -56 4 -62 11 -78 28
-64 8 6 14 8 14 5 0 -10 -27 -36 -32 -31 -2 2 -4 -4 -5 -15 -2 -19 -30 -53
-54 -64 -8 -3 3 -4 23 -1 52 8 123 41 163 77 28 24 35 37 35 67 0 42 -5 50
-47 79 -26 18 -44 22 -105 21 -40 -1 -89 -5 -108 -9z m190 -144 c0 -3 -4 -8
-10 -11 -5 -3 -10 -1 -10 4 0 6 5 11 10 11 6 0 10 -2 10 -4z"/>
<path d="M611 2594 c-29 -14 -80 -43 -112 -65 -76 -51 -78 -76 -9 -118 30 -18
51 -21 138 -21 66 0 102 4 102 11 0 6 -10 10 -22 9 -51 -4 -98 1 -98 10 0 6
12 10 28 11 l27 1 -28 11 c-20 8 -26 16 -21 29 3 11 1 25 -5 32 -8 10 -2 20
27 41 20 15 28 24 17 20 -11 -4 -30 -10 -42 -12 -13 -3 -23 -9 -23 -14 0 -5
-4 -9 -10 -9 -21 0 -9 18 23 34 39 19 72 44 66 50 -2 2 -28 -7 -58 -20z"/>
<path d="M1520 2510 c0 -5 4 -10 9 -10 6 0 13 5 16 10 3 6 -1 10 -9 10 -9 0
-16 -4 -16 -10z"/>
<path d="M1606 2356 c21 -15 30 -14 19 3 -3 6 -14 11 -23 11 -13 0 -13 -2 4
-14z"/>
<path d="M3422 2335 c0 -16 2 -22 5 -12 2 9 2 23 0 30 -3 6 -5 -1 -5 -18z"/>
<path d="M1355 2333 c-36 -5 -58 -13 -154 -62 -73 -37 -99 -61 -67 -61 9 0 16
5 16 10 0 6 7 10 15 10 8 0 15 5 15 10 0 6 5 10 11 10 6 0 8 -9 4 -20 -5 -15
-3 -18 10 -14 10 4 23 -3 36 -20 11 -14 27 -26 35 -26 8 0 14 -6 14 -14 0 -7
9 -25 21 -40 17 -22 19 -29 8 -42 -11 -13 -9 -14 15 -8 26 6 27 5 15 -14 -7
-12 -10 -24 -7 -27 8 -8 67 55 68 72 0 6 4 13 8 15 16 6 55 104 60 150 4 44 3
47 -26 62 -31 16 -39 17 -97 9z m5 -213 c0 -5 -5 -10 -11 -10 -5 0 -7 5 -4 10
3 6 8 10 11 10 2 0 4 -4 4 -10z m20 -30 c0 -5 -4 -10 -10 -10 -5 0 -10 5 -10
10 0 6 5 10 10 10 6 0 10 -4 10 -10z"/>
<path d="M3447 2229 c3 -11 -4 -39 -17 -64 -17 -33 -20 -47 -11 -61 10 -18 10
-18 11 3 0 12 9 43 20 69 20 46 21 74 1 74 -5 0 -7 -9 -4 -21z"/>
<path d="M1080 2200 c0 -5 7 -10 15 -10 8 0 15 5 15 10 0 6 -7 10 -15 10 -8 0
-15 -4 -15 -10z"/>
<path d="M3412 2060 c0 -14 2 -19 5 -12 2 6 2 18 0 25 -3 6 -5 1 -5 -13z"/>
<path d="M1310 2008 c0 -6 -7 -20 -17 -30 -24 -27 0 -22 26 6 19 20 20 24 7
29 -9 4 -16 1 -16 -5z"/>
<path d="M3412 1985 c0 -16 2 -22 5 -12 2 9 2 23 0 30 -3 6 -5 -1 -5 -18z"/>
<path d="M673 1867 c-97 -99 -138 -176 -137 -255 0 -41 5 -58 22 -75 20 -19
32 -22 101 -20 67 1 85 6 123 30 66 42 110 82 103 93 -9 15 -25 12 -25 -4 0
-13 -20 -26 -41 -26 -14 0 -11 28 4 33 10 4 10 7 0 18 -11 11 -13 10 -13 -3 0
-31 -21 -30 -51 3 -16 18 -29 38 -29 45 0 6 -7 17 -15 24 -9 7 -14 19 -11 27
3 7 -1 13 -9 13 -8 0 -15 9 -15 20 0 11 -4 20 -10 20 -23 0 -9 21 66 103 15
15 24 30 22 32 -2 3 -40 -33 -85 -78z m-13 -78 c0 -6 -4 -7 -10 -4 -5 3 -10
11 -10 16 0 6 5 7 10 4 6 -3 10 -11 10 -16z m115 -199 c3 -5 2 -10 -4 -10 -5
0 -13 5 -16 10 -3 6 -2 10 4 10 5 0 13 -4 16 -10z"/>
<path d="M3410 1938 c0 -7 5 -20 10 -28 8 -12 10 -9 10 13 0 15 -4 27 -10 27
-5 0 -10 -6 -10 -12z"/>
<path d="M1751 1898 c-63 -10 -129 -41 -205 -97 -56 -42 -119 -97 -101 -90 41
18 71 36 78 46 4 7 13 13 19 13 6 0 3 -9 -7 -20 -10 -11 -15 -23 -11 -27 4 -4
11 -1 17 7 8 13 10 13 20 0 8 -11 12 -12 16 -2 8 20 44 14 65 -13 11 -14 26
-25 34 -25 12 0 19 -19 15 -44 -1 -4 6 -14 16 -22 10 -7 14 -14 8 -14 -5 0 -3
-4 5 -10 22 -14 5 -23 -20 -10 -19 10 -20 10 -9 -8 41 -66 229 142 229 253 0
28 -5 37 -27 48 -41 21 -81 25 -142 15z m114 -38 c-3 -5 -11 -10 -16 -10 -6 0
-7 5 -4 10 3 6 11 10 16 10 6 0 7 -4 4 -10z m-195 -19 c0 -5 -10 -11 -22 -14
-22 -6 -22 -6 -4 8 23 17 26 18 26 6z m-59 -44 c-6 -8 -8 -17 -4 -20 3 -4 2
-7 -4 -7 -16 0 -24 28 -10 34 22 9 29 6 18 -7z m-31 -47 c0 -5 -4 -10 -10 -10
-5 0 -10 5 -10 10 0 6 5 10 10 10 6 0 10 -4 10 -10z m166 -125 c-9 -9 -16 -13
-16 -8 0 12 22 34 28 28 2 -2 -3 -11 -12 -20z"/>
<path d="M745 1890 c-3 -5 -1 -10 4 -10 6 0 11 5 11 10 0 6 -2 10 -4 10 -3 0
-8 -4 -11 -10z"/>
<path d="M3430 1868 c0 -16 5 -28 10 -28 13 0 13 20 0 40 -8 12 -10 9 -10 -12z"/>
<path d="M3444 1814 c-4 -10 -9 -22 -11 -26 -2 -5 0 -8 6 -8 11 0 26 39 17 47
-3 3 -9 -3 -12 -13z"/>
<path d="M3211 1794 c0 -11 3 -14 6 -6 3 7 2 16 -1 19 -3 4 -6 -2 -5 -13z"/>
<path d="M3460 1786 c0 -8 5 -18 10 -21 6 -3 10 -20 10 -37 0 -16 9 -41 20
-55 24 -31 28 -72 6 -54 -12 10 -13 6 -9 -27 4 -26 0 -48 -12 -68 -9 -16 -14
-20 -10 -9 5 17 2 16 -17 -6 -13 -14 -30 -24 -38 -22 -8 2 -5 -4 8 -13 25 -19
29 -39 7 -48 -8 -3 -15 -13 -15 -23 1 -17 2 -16 15 1 8 11 15 15 15 9 0 -18
-24 -31 -49 -27 -19 4 -22 1 -18 -16 5 -21 -7 -28 -18 -10 -7 12 -25 4 -25
-11 0 -6 5 -7 10 -4 6 3 10 -1 10 -9 0 -9 -4 -16 -10 -16 -5 0 -10 -7 -10 -15
0 -21 27 -19 39 3 6 9 11 11 11 5 0 -7 -9 -22 -21 -34 -20 -20 -21 -20 -35 -2
-8 10 -12 28 -9 41 6 24 -4 29 -22 11 -8 -8 -13 -8 -17 0 -4 6 -2 11 4 11 7 0
3 12 -8 28 -17 25 -35 72 -36 97 -1 6 -4 13 -9 16 -4 3 -11 25 -16 50 -5 25
-9 34 -10 20 -1 -31 39 -181 48 -181 4 0 8 -6 8 -13 0 -15 42 -82 77 -120 26
-30 125 -107 136 -107 15 0 75 69 91 105 44 100 27 283 -41 430 -31 68 -50
115 -50 124 0 6 -4 11 -10 11 -5 0 -10 -6 -10 -14z m76 -213 c-10 -10 -19 5
-10 18 6 11 8 11 12 0 2 -7 1 -15 -2 -18z m22 -45 c2 -12 -3 -16 -17 -15 -13
1 -21 8 -21 20 0 23 33 19 38 -5z m-18 -48 c0 -5 -5 -10 -11 -10 -5 0 -7 5 -4
10 3 6 8 10 11 10 2 0 4 -4 4 -10z m27 -47 c-3 -10 -5 -4 -5 12 0 17 2 24 5
18 2 -7 2 -21 0 -30z m-132 -83 c3 -5 -1 -10 -9 -10 -9 0 -16 5 -16 10 0 6 4
10 9 10 6 0 13 -4 16 -10z m-30 -80 c3 -5 1 -10 -4 -10 -6 0 -11 5 -11 10 0 6
2 10 4 10 3 0 8 -4 11 -10z m-15 -30 c0 -5 -4 -10 -10 -10 -5 0 -10 5 -10 10
0 6 5 10 10 10 6 0 10 -4 10 -10z"/>
<path d="M3421 1754 c0 -11 3 -14 6 -6 3 7 2 16 -1 19 -3 4 -6 -2 -5 -13z"/>
<path d="M3447 1733 c-4 -3 -7 -16 -6 -27 0 -19 1 -19 10 3 10 24 8 36 -4 24z"/>
<path d="M960 1689 c0 -5 5 -7 10 -4 6 3 10 8 10 11 0 2 -4 4 -10 4 -5 0 -10
-5 -10 -11z"/>
<path d="M1401 1674 c-23 -30 -29 -53 -8 -32 16 16 40 58 33 58 -2 0 -14 -12
-25 -26z"/>
<path d="M915 1660 c-10 -11 -14 -20 -9 -20 12 1 44 25 44 34 0 12 -17 6 -35
-14z"/>
<path d="M1930 1414 c0 -8 5 -12 10 -9 6 3 10 10 10 16 0 5 -4 9 -10 9 -5 0
-10 -7 -10 -16z"/>
<path d="M1907 1383 c-4 -3 -7 -11 -7 -17 0 -6 5 -5 12 2 6 6 9 14 7 17 -3 3
-9 2 -12 -2z"/>
<path d="M1885 1340 c-3 -5 -1 -10 4 -10 6 0 11 5 11 10 0 6 -2 10 -4 10 -3 0
-8 -4 -11 -10z"/>
<path d="M2300 1330 c0 -5 5 -10 11 -10 5 0 7 5 4 10 -3 6 -8 10 -11 10 -2 0
-4 -4 -4 -10z"/>
<path d="M1130 1319 c0 -5 5 -7 10 -4 6 3 10 8 10 11 0 2 -4 4 -10 4 -5 0 -10
-5 -10 -11z"/>
<path d="M1870 1311 c0 -5 5 -13 10 -16 6 -3 10 -2 10 4 0 5 -4 13 -10 16 -5
3 -10 2 -10 -4z"/>
<path d="M1100 1290 c-9 -6 -10 -10 -3 -10 6 0 15 5 18 10 8 12 4 12 -15 0z"/>
<path d="M1841 1257 c-11 -19 -21 -37 -21 -41 0 -3 -8 -25 -19 -49 -31 -71
-50 -120 -62 -163 -6 -22 -28 -58 -48 -80 -141 -153 -179 -247 -136 -339 49
-102 177 -69 327 85 58 60 188 221 188 233 0 2 20 35 45 71 25 37 45 72 45 78
0 16 -28 -10 -35 -33 -8 -25 -25 -25 -25 0 0 11 -4 22 -9 25 -5 4 -5 -10 0
-31 4 -21 6 -39 4 -41 -6 -7 -44 32 -39 40 3 4 0 8 -6 8 -7 0 -10 -6 -7 -14 4
-10 -3 -13 -26 -11 -18 1 -33 8 -33 14 -1 6 -2 16 -3 21 0 6 -5 10 -11 10 -5
0 -19 9 -31 21 -20 20 -21 20 -34 2 -8 -10 -15 -13 -15 -8 0 6 -4 4 -9 -3 -4
-7 -17 -14 -29 -15 -11 0 -24 -10 -28 -22 -6 -19 -7 -19 -11 3 -3 13 -11 26
-19 29 -8 3 -14 13 -14 22 1 14 2 14 14 -1 20 -28 44 -23 38 7 -5 27 -17 33
-25 13 -3 -7 -6 -1 -6 15 -1 15 3 27 8 27 5 0 12 15 16 33 4 17 8 34 9 37 1 3
9 22 19 43 24 49 16 58 -12 14z m-64 -249 c-3 -8 -6 -5 -6 6 -1 11 2 17 5 13
3 -3 4 -12 1 -19z m-20 -50 c-3 -7 -5 -2 -5 12 0 14 2 19 5 13 2 -7 2 -19 0
-25z m53 7 c0 -8 -4 -15 -10 -15 -5 0 -10 7 -10 15 0 8 5 15 10 15 6 0 10 -7
10 -15z m250 1 c0 -3 -4 -8 -10 -11 -5 -3 -10 -1 -10 4 0 6 5 11 10 11 6 0 10
-2 10 -4z m-63 -38 c2 -31 2 -31 -13 -10 -8 12 -12 27 -9 32 11 19 20 10 22
-22z m76 17 c-3 -9 -8 -14 -10 -11 -3 3 -2 9 2 15 9 16 15 13 8 -4z m-33 -30
c0 -5 -5 -3 -10 5 -5 8 -10 20 -10 25 0 6 5 3 10 -5 5 -8 10 -19 10 -25z m-60
-34 c0 -5 -7 -11 -14 -14 -10 -4 -13 -1 -9 9 6 15 23 19 23 5z m50 -1 c0 -5
-4 -10 -10 -10 -5 0 -10 5 -10 10 0 6 5 10 10 10 6 0 10 -4 10 -10z m-350 -20
c0 -5 -5 -10 -11 -10 -5 0 -7 5 -4 10 3 6 8 10 11 10 2 0 4 -4 4 -10z m312
-32 c-8 -8 -9 -4 -5 13 4 13 8 18 11 10 2 -7 -1 -18 -6 -23z"/>
<path d="M1070 1260 c0 -5 5 -10 10 -10 6 0 10 5 10 10 0 6 -4 10 -10 10 -5 0
-10 -4 -10 -10z"/>
<path d="M1045 1240 c-3 -5 -1 -10 4 -10 6 0 11 5 11 10 0 6 -2 10 -4 10 -3 0
-8 -4 -11 -10z"/>
<path d="M1870 1219 c0 -11 4 -18 10 -14 5 3 7 12 3 20 -7 21 -13 19 -13 -6z"/>
<path d="M2240 1231 c0 -5 5 -13 10 -16 6 -3 10 -2 10 4 0 5 -4 13 -10 16 -5
3 -10 2 -10 -4z"/>
<path d="M1020 1210 c0 -5 5 -10 10 -10 6 0 10 5 10 10 0 6 -4 10 -10 10 -5 0
-10 -4 -10 -10z"/>
<path d="M959 1146 c-73 -94 -106 -196 -78 -247 6 -11 31 -34 57 -50 51 -32
102 -37 142 -14 14 8 34 18 45 23 29 14 119 113 159 177 l19 30 -33 -30 c-18
-16 -41 -38 -52 -47 -19 -19 -48 -24 -48 -8 0 5 6 7 14 4 7 -3 16 1 19 9 3 9
-2 17 -14 20 -10 3 -19 1 -19 -4 0 -5 -6 -8 -12 -6 -7 1 -14 -8 -16 -20 -2
-13 -7 -23 -11 -23 -4 0 -6 14 -3 30 3 23 0 30 -12 30 -10 0 -15 4 -11 9 5 9
-17 27 -37 30 -28 5 -38 14 -28 26 11 14 3 48 -10 40 -5 -3 -15 8 -23 25 -18
35 -5 40 17 8 15 -22 16 -22 16 -2 0 20 -17 44 -31 44 -4 0 -27 -24 -50 -54z
m49 -41 c-3 -3 -9 2 -12 12 -6 14 -5 15 5 6 7 -7 10 -15 7 -18z m142 -199 c0
-11 -19 -15 -25 -6 -3 5 1 10 9 10 9 0 16 -2 16 -4z"/>
<path d="M2227 1193 c-4 -3 -7 -13 -7 -22 1 -13 3 -13 11 2 11 19 8 33 -4 20z"/>
<path d="M2195 1147 c-4 -10 -5 -21 -1 -24 10 -10 18 4 13 24 -4 17 -4 17 -12
0z"/>
<path d="M2170 1095 c1 -26 2 -28 11 -12 8 14 8 22 0 30 -8 8 -11 3 -11 -18z"/>
<path d="M1070 1080 c0 -5 5 -10 11 -10 5 0 7 5 4 10 -3 6 -8 10 -11 10 -2 0
-4 -4 -4 -10z"/>
<path d="M1216 1035 c-3 -8 -1 -15 4 -15 6 0 10 7 10 15 0 8 -2 15 -4 15 -2 0
-6 -7 -10 -15z"/>
</g>
</svg>
