<?xml version="1.0" standalone="no"?>
<!DOCTYPE svg PUBLIC "-//W3C//DTD SVG 20010904//EN"
 "http://www.w3.org/TR/2001/REC-SVG-20010904/DTD/svg10.dtd">
<svg version="1.0" xmlns="http://www.w3.org/2000/svg"
 width="500.000000pt" height="500.000000pt" viewBox="0 0 500.000000 500.000000"
 preserveAspectRatio="xMidYMid meet">

<g transform="translate(0.000000,500.000000) scale(0.100000,-0.100000)"
fill="#000000" stroke="none">
<path d="M1 4918 c1 -66 3 -77 10 -52 13 45 69 103 114 119 l40 14 -82 1 -83
0 1 -82z"/>
<path d="M4875 4985 c45 -16 101 -74 114 -119 7 -25 9 -14 10 52 l1 82 -82 0
-83 -1 40 -14z"/>
<path d="M735 4386 c-67 -19 -109 -66 -125 -140 -8 -38 -10 -135 -8 -284 5
-289 17 -323 127 -360 46 -16 496 -17 553 -2 52 15 103 64 117 115 16 58 24
344 13 457 -12 124 -32 165 -98 198 -48 24 -55 25 -289 27 -178 2 -253 -1
-290 -11z m542 -129 c16 -16 18 -40 18 -250 0 -128 -3 -244 -8 -259 -5 -18
-17 -30 -35 -35 -15 -5 -131 -8 -259 -8 -210 0 -234 2 -250 18 -16 16 -18 43
-21 245 -4 257 0 289 31 302 12 5 131 8 264 7 218 -2 244 -4 260 -20z"/>
<path d="M894 4163 c-45 -9 -58 -38 -62 -141 -2 -53 1 -116 7 -138 16 -58 41
-67 185 -62 152 4 150 2 154 154 4 140 -5 169 -57 184 -35 10 -183 12 -227 3z"/>
<path d="M1632 4391 c-12 -7 -17 -30 -21 -83 -1 -14 -10 -18 -40 -18 -47 0
-71 -20 -71 -60 0 -54 17 -60 173 -60 78 0 148 4 155 9 8 5 14 25 15 46 1 46
-21 65 -75 65 l-38 0 0 43 c0 24 -5 48 -12 55 -14 14 -67 16 -86 3z"/>
<path d="M1852 4388 c-14 -14 -16 -67 -3 -87 5 -7 29 -16 55 -18 l46 -6 1
-121 c0 -159 4 -187 23 -202 20 -14 77 -9 88 9 4 6 8 56 8 110 l0 97 43 0 c52
0 67 13 67 60 0 47 -15 60 -67 60 l-43 0 0 43 c0 24 -5 48 -12 55 -16 16 -190
16 -206 0z"/>
<path d="M2300 4381 c-15 -29 -12 -67 6 -85 9 -9 32 -16 54 -16 42 0 50 -11
50 -65 0 -35 13 -45 59 -45 38 0 51 17 51 67 l0 43 40 0 c52 0 79 26 74 71 -2
18 -10 36 -17 41 -6 4 -78 8 -159 8 -135 0 -148 -2 -158 -19z"/>
<path d="M2872 4388 c-7 -7 -12 -21 -12 -32 -1 -63 -5 -66 -105 -66 -107 0
-125 -10 -125 -65 0 -47 20 -55 134 -55 l96 0 0 -104 c0 -73 4 -107 13 -113 6
-4 56 -7 110 -5 l97 3 0 -159 c0 -109 4 -162 12 -170 7 -7 28 -12 48 -12 47 0
60 15 60 67 l0 43 44 0 c53 0 68 16 64 67 l-3 38 -52 3 -53 3 0 59 0 59 53 3
52 3 3 38 c4 51 -11 67 -64 67 l-44 0 0 99 c0 111 -9 131 -60 131 -38 0 -60
-24 -60 -65 0 -40 -24 -58 -73 -53 -31 3 -32 4 -35 56 l-3 52 39 0 c48 0 72
17 76 55 7 58 -5 65 -107 65 -59 0 -97 -4 -105 -12z"/>
<path d="M3317 4393 c-13 -13 -7 -90 8 -103 13 -11 80 -9 90 2 9 9 11 66 4 86
-7 18 -16 22 -52 22 -24 0 -47 -3 -50 -7z"/>
<path d="M3648 4387 c-67 -19 -97 -43 -121 -95 -20 -44 -22 -63 -22 -292 0
-213 2 -251 18 -292 21 -55 62 -93 115 -108 54 -14 487 -15 540 -1 54 15 107
61 124 109 18 52 18 512 0 564 -18 52 -48 86 -90 105 -50 22 -491 30 -564 10z
m509 -113 c12 -4 26 -19 32 -36 12 -33 15 -424 5 -477 -11 -53 -26 -56 -284
-56 -258 0 -273 3 -284 56 -10 54 -7 444 5 477 6 19 19 32 32 35 34 7 469 7
494 1z"/>
<path d="M3783 4155 c-20 -8 -34 -23 -37 -37 -14 -68 -16 -105 -10 -175 11
-116 20 -123 174 -123 115 0 122 1 145 25 14 13 26 37 26 52 4 90 -2 216 -11
233 -6 10 -27 24 -48 30 -54 15 -201 12 -239 -5z"/>
<path d="M2330 4172 c-30 -9 -40 -36 -40 -112 0 -45 5 -83 13 -93 17 -24 57
-29 84 -12 21 14 23 23 23 104 0 59 -4 92 -12 98 -17 14 -50 21 -68 15z"/>
<path d="M3332 4169 c-20 -8 -23 -15 -20 -56 l3 -48 47 -3 c38 -2 49 1 57 17
17 30 2 81 -26 92 -29 11 -31 11 -61 -2z"/>
<path d="M1510 4041 c-5 -11 -10 -56 -10 -100 0 -94 11 -111 71 -111 24 0 39
-5 40 -12 1 -7 2 -28 4 -47 3 -41 17 -51 73 -51 l42 0 0 -158 c0 -173 3 -182
56 -182 40 0 58 21 58 71 l0 39 168 0 168 0 0 -43 c0 -51 13 -67 55 -67 45 0
59 14 61 62 1 24 2 45 3 48 1 3 22 5 47 6 49 1 64 13 64 52 0 47 -17 62 -69
62 l-48 0 2 38 c3 55 -9 72 -53 72 -45 0 -62 -14 -62 -51 0 -51 -8 -59 -61
-59 l-49 0 0 55 0 55 43 0 c54 0 67 13 67 67 l0 43 44 0 c35 0 48 5 60 21 16
24 11 78 -8 91 -19 13 -181 9 -194 -4 -7 -7 -12 -26 -12 -43 0 -43 -11 -55
-54 -59 -21 -2 -43 -9 -50 -15 -6 -7 -13 -56 -16 -109 l-5 -97 -53 -3 -53 -3
2 110 1 111 43 0 c51 0 75 19 75 60 0 41 -24 60 -74 60 l-42 0 -1 45 c-1 24
-4 49 -8 55 -4 6 -66 10 -160 10 -142 0 -155 -2 -165 -19z"/>
<path d="M2636 4044 c-9 -24 -7 -82 3 -88 23 -15 81 -14 96 0 18 18 20 75 3
92 -18 18 -95 15 -102 -4z"/>
<path d="M2421 3941 c-7 -5 -16 -29 -18 -55 -6 -46 -6 -46 -43 -46 -59 0 -88
-49 -60 -101 8 -14 21 -19 55 -19 l45 0 0 -38 c0 -57 17 -74 70 -70 l45 3 3
53 3 52 42 0 c67 0 71 7 72 108 0 118 -3 122 -114 122 -47 0 -92 -4 -100 -9z"/>
<path d="M3323 3943 c-17 -6 -17 -85 -1 -101 14 -14 67 -16 87 -3 14 9 18 81
6 101 -6 10 -70 13 -92 3z"/>
<path d="M2783 3832 c-26 -3 -34 -9 -39 -29 -4 -14 -3 -38 2 -52 8 -21 16 -27
50 -29 50 -4 66 13 62 64 -3 41 -21 52 -75 46z"/>
<path d="M1510 3701 c-5 -11 -10 -80 -10 -155 0 -149 6 -166 60 -166 54 0 60
17 60 174 0 97 -4 146 -12 154 -20 20 -86 15 -98 -7z"/>
<path d="M2642 3707 c-6 -7 -13 -56 -14 -108 l-3 -94 -40 -5 c-56 -8 -65 -16
-65 -61 0 -50 -20 -59 -129 -59 -46 0 -82 -5 -89 -12 -19 -19 -16 -182 3 -198
20 -17 153 -24 188 -11 24 9 27 16 27 61 l0 50 213 0 c152 0 216 3 225 12 8 8
12 46 12 105 0 90 -1 94 -25 105 -18 8 -35 9 -53 2 -22 -8 -28 -17 -33 -52 -3
-23 -8 -44 -12 -48 -3 -3 -26 -9 -52 -11 l-45 -6 0 152 c0 86 -5 161 -10 172
-13 23 -81 27 -98 6z"/>
<path d="M2864 3707 c-3 -8 -4 -32 -2 -53 l3 -39 50 0 50 0 0 50 0 50 -48 3
c-34 2 -49 -1 -53 -11z"/>
<path d="M3314 3707 c-3 -8 -4 -32 -2 -53 3 -39 3 -39 51 -42 42 -3 48 -1 56
21 6 14 6 38 2 54 -7 25 -12 28 -54 31 -34 2 -49 -1 -53 -11z"/>
<path d="M3206 3601 c-11 -17 -16 -76 -8 -88 11 -17 69 -25 92 -13 20 11 27
59 14 94 -7 17 -88 23 -98 7z"/>
<path d="M726 3484 c-9 -9 -16 -32 -16 -55 0 -30 -4 -39 -17 -40 -77 -3 -93
-14 -93 -64 0 -48 14 -55 115 -55 57 0 95 4 103 12 8 8 12 46 12 105 0 81 -2
94 -19 103 -29 15 -67 12 -85 -6z"/>
<path d="M958 3489 c-15 -8 -18 -25 -18 -102 0 -59 4 -97 12 -105 7 -7 29 -12
50 -12 33 0 40 4 49 27 5 14 7 39 4 55 l-7 29 59 -3 58 -3 1 -36 c1 -58 9 -69
52 -69 49 0 62 14 62 67 l0 43 43 0 c53 0 67 13 67 62 0 27 -5 40 -19 48 -26
13 -390 13 -413 -1z"/>
<path d="M3098 3489 c-21 -12 -25 -78 -6 -97 7 -7 28 -12 48 -12 46 0 60 15
60 62 0 27 -5 40 -19 48 -25 13 -61 12 -83 -1z"/>
<path d="M3436 3484 c-9 -8 -16 -31 -16 -50 0 -45 -27 -56 -122 -50 -104 6
-106 3 -107 -180 -1 -82 -3 -150 -5 -152 -2 -2 -23 -5 -46 -7 -24 -2 -47 -10
-51 -17 -5 -7 -9 -102 -9 -210 0 -224 1 -228 74 -228 42 0 42 0 42 -38 1 -61
9 -72 52 -72 49 0 62 14 62 67 l0 43 110 0 110 0 0 -55 0 -55 -98 0 c-63 0
-102 -4 -110 -12 -7 -7 -12 -29 -12 -50 0 -32 4 -40 25 -48 13 -5 37 -8 52 -7
l28 2 3 -159 c2 -121 -1 -161 -10 -168 -7 -4 -51 -8 -98 -8 -47 0 -91 -4 -97
-8 -7 -4 -15 -25 -17 -45 -3 -21 -8 -42 -11 -47 -4 -6 -92 -10 -221 -10 l-214
0 0 36 c0 55 -15 74 -58 74 -56 0 -62 -12 -62 -116 0 -56 -4 -95 -11 -100 -8
-5 -233 -7 -421 -4 -16 0 -18 11 -18 98 0 108 -6 122 -55 122 -47 0 -55 -15
-55 -106 0 -45 -3 -89 -6 -98 -3 -9 -24 -18 -50 -22 -24 -3 -47 -11 -50 -16
-4 -5 -8 -49 -11 -96 -5 -110 -6 -112 -43 -112 -62 0 -70 -11 -70 -106 0 -107
8 -124 60 -124 45 0 60 18 60 74 0 35 1 36 36 36 59 0 74 14 74 70 l0 50 110
0 110 0 0 -44 c0 -52 19 -76 60 -76 51 0 60 20 60 131 l0 99 55 0 55 0 0 -50
c0 -62 6 -65 119 -64 96 0 111 11 111 76 l0 38 98 0 c63 0 102 4 110 12 7 7
12 31 12 55 l0 43 110 0 110 0 0 -55 0 -55 -45 0 c-57 0 -65 -15 -65 -119 0
-95 11 -111 73 -111 l42 0 1 -46 c2 -54 13 -64 72 -64 l42 0 0 -55 0 -55 -42
0 c-69 0 -73 -6 -73 -115 0 -105 5 -115 60 -115 42 0 55 16 55 67 l0 43 170 0
170 0 0 -94 c0 -108 -10 -126 -65 -126 -39 0 -47 -10 -55 -65 l-5 -40 -94 -3
c-52 -1 -101 -8 -108 -14 -21 -17 -17 -85 6 -98 11 -5 80 -10 155 -10 156 0
166 5 166 76 0 43 0 44 32 40 18 -2 43 0 55 5 20 7 23 16 23 59 l0 51 111 -3
111 -3 2 -43 c1 -23 8 -48 14 -54 8 -8 59 -11 159 -10 128 1 149 3 160 18 9
13 13 60 13 155 0 150 -6 169 -56 169 -46 0 -64 -17 -64 -61 0 -41 -7 -49 -50
-51 -57 -2 -60 0 -60 45 0 24 -5 48 -12 55 -14 14 -176 16 -197 3 -8 -5 -17
-29 -20 -53 l-6 -43 -52 -3 -53 -3 0 50 0 49 53 9 52 8 7 45 c3 25 7 150 7
278 l1 232 110 0 110 0 0 -50 c0 -43 3 -52 22 -59 12 -4 35 -5 52 -1 38 7 44
32 38 143 l-5 77 46 0 c59 0 81 20 73 68 -3 20 -11 39 -18 44 -7 4 -57 8 -110
8 l-98 0 0 43 c0 54 -13 67 -67 67 l-43 0 0 43 c0 53 -13 67 -61 67 -44 0 -57
-13 -61 -65 -3 -39 -4 -40 -45 -43 -50 -4 -60 -15 -65 -67 l-3 -40 -103 -5
c-111 -5 -122 -11 -122 -62 0 -49 21 -58 131 -58 l99 0 0 -55 0 -55 -167 2
-168 3 -3 108 c-1 59 1 108 5 108 4 1 26 3 47 4 57 3 66 22 66 132 l0 93 43 0
c24 0 48 5 55 12 8 8 12 60 12 170 l0 158 55 0 55 0 0 -158 c0 -172 3 -182 54
-182 63 0 61 -11 64 333 3 280 1 316 -13 331 -14 14 -45 16 -219 16 -152 0
-206 -3 -214 -13 -6 -7 -12 -30 -14 -52 l-3 -40 -107 -3 -108 -3 0 55 0 55
107 3 c104 3 107 4 113 28 4 14 4 36 0 50 -5 22 -12 25 -58 28 l-52 3 0 55 0
54 44 0 c63 0 71 15 71 129 l0 96 45 3 c53 3 70 21 70 74 0 37 1 38 36 38 56
0 74 15 74 60 0 51 -17 60 -119 60 -59 0 -84 -4 -95 -16z m544 -1627 l0 -52
-50 0 -50 0 0 53 0 52 50 0 50 0 0 -53z m-220 -435 c0 -110 -4 -162 -12 -170
-8 -8 -60 -12 -170 -12 l-158 0 0 163 c0 90 3 167 7 170 3 4 80 7 170 7 l163
0 0 -158z"/>
<path d="M3546 1454 c-18 -18 -21 -56 -6 -85 12 -22 78 -27 98 -7 20 20 15 86
-7 98 -29 15 -67 12 -85 -6z"/>
<path d="M3778 3489 c-15 -8 -18 -25 -18 -102 0 -101 -7 -117 -51 -117 -57 0
-59 -4 -59 -111 0 -97 1 -100 25 -111 18 -8 35 -9 53 -2 23 8 28 16 32 59 l5
50 42 0 c24 1 47 5 53 11 10 10 18 44 19 82 1 20 6 22 51 22 l50 0 0 -93 c0
-68 4 -99 16 -115 16 -24 53 -29 85 -12 17 10 19 23 19 158 0 81 -4 153 -9
160 -4 8 -28 15 -52 16 l-44 2 -6 48 c-3 26 -12 52 -20 57 -19 12 -170 11
-191 -2z"/>
<path d="M4112 3488 c-7 -7 -12 -31 -12 -54 0 -46 9 -54 66 -54 28 0 36 5 45
27 11 30 4 74 -14 85 -19 12 -72 9 -85 -4z"/>
<path d="M1878 3382 c-36 -4 -38 -14 -41 -187 l-2 -140 -52 -3 -53 -3 0 98 c0
112 -6 123 -61 123 -43 0 -45 -2 -53 -54 -9 -53 -12 -56 -56 -56 -44 0 -60
-18 -60 -69 0 -16 -3 -32 -8 -35 -4 -2 -99 -6 -210 -7 -112 -2 -208 -7 -214
-10 -6 -4 -14 -27 -17 -50 -6 -45 -11 -49 -83 -64 l-28 -5 0 -100 c0 -59 4
-101 11 -105 6 -4 49 -8 95 -10 117 -5 124 2 124 130 l0 95 110 0 110 0 0 -44
c0 -24 6 -48 13 -54 7 -6 58 -13 113 -14 l99 -3 1 -97 c0 -109 9 -128 58 -128
50 0 56 13 56 127 l0 103 103 0 c67 0 107 4 115 12 8 8 12 47 12 110 l0 98 98
0 c63 0 102 4 110 12 8 8 12 47 12 109 0 79 -3 98 -16 103 -9 3 -58 6 -110 6
l-94 0 0 44 c0 56 -23 76 -82 68z"/>
<path d="M829 3243 c-22 -59 14 -101 73 -85 32 8 33 10 33 58 l0 49 -48 3
c-43 3 -48 1 -58 -25z"/>
<path d="M1293 3263 c-16 -6 -17 -89 -2 -99 7 -4 49 -8 96 -10 72 -3 86 -1
103 16 22 22 24 37 10 74 -9 25 -12 26 -102 25 -51 0 -99 -3 -105 -6z"/>
<path d="M4217 3263 c-4 -3 -7 -26 -7 -49 0 -34 5 -46 21 -55 27 -14 85 -3 93
17 10 26 7 69 -6 82 -13 13 -90 17 -101 5z"/>
<path d="M720 3141 c-15 -29 -12 -67 6 -85 18 -19 75 -21 92 -4 16 16 16 80 0
96 -20 20 -86 15 -98 -7z"/>
<path d="M953 3153 c-17 -6 -17 -85 -1 -101 17 -17 74 -15 92 3 14 15 15 73 0
96 -5 9 -70 11 -91 2z"/>
<path d="M2646 3144 c-9 -8 -16 -28 -16 -44 0 -54 17 -60 166 -60 75 0 144 5
155 10 22 12 27 78 7 98 -8 8 -57 12 -154 12 -116 0 -145 -3 -158 -16z"/>
<path d="M623 3039 c-18 -7 -23 -16 -23 -47 0 -48 14 -62 62 -62 27 0 40 5 48
19 12 24 13 61 1 80 -11 17 -56 22 -88 10z"/>
<path d="M3448 3040 c-18 -5 -24 -14 -26 -44 -5 -59 7 -66 112 -66 102 0 116
7 116 56 0 52 -19 63 -104 61 -41 -1 -85 -4 -98 -7z"/>
<path d="M3900 3042 c-26 -9 -30 -24 -30 -112 0 -97 7 -110 60 -110 20 0 41 5
48 12 13 13 17 175 4 194 -9 13 -61 24 -82 16z"/>
<path d="M4130 3041 c-24 -7 -25 -10 -28 -100 -3 -108 3 -121 59 -121 45 0 60
22 52 78 l-5 32 45 0 c51 0 77 18 77 54 0 46 -22 60 -101 62 -41 1 -85 -1 -99
-5z"/>
<path d="M2263 2850 c-46 -11 -80 -35 -100 -73 -16 -28 -18 -60 -18 -242 0
-115 3 -222 7 -237 5 -14 19 -40 33 -57 38 -45 96 -53 325 -49 173 3 199 5
228 23 60 36 66 58 70 279 6 351 -8 367 -337 365 -97 -1 -191 -4 -208 -9z m67
-219 c0 -43 35 -123 64 -148 l31 -26 3 97 3 96 39 0 40 0 0 -55 c0 -54 0 -54
24 -44 13 6 36 31 51 55 25 40 32 44 67 44 36 0 39 -2 32 -22 -9 -31 -63 -108
-74 -108 -19 0 -10 -17 16 -30 28 -15 74 -86 74 -113 0 -13 -9 -17 -38 -17
-33 0 -40 4 -57 36 -17 33 -59 64 -85 64 -5 0 -10 -22 -10 -49 l0 -50 -37 5
c-127 18 -207 102 -220 230 l-6 54 42 0 c33 0 41 -3 41 -19z"/>
<path d="M612 2808 c-8 -8 -12 -46 -12 -105 0 -100 7 -113 64 -113 37 0 56 25
56 76 l0 44 49 0 c35 0 51 4 55 16 10 26 7 69 -6 82 -16 16 -190 16 -206 0z"/>
<path d="M1287 2814 c-12 -12 -8 -92 5 -100 21 -13 77 -12 88 1 6 8 10 33 8
57 l-3 43 -45 3 c-25 2 -49 0 -53 -4z"/>
<path d="M1402 2698 c-7 -7 -12 -28 -12 -48 0 -46 15 -60 62 -60 27 0 40 5 48
19 11 22 2 82 -14 93 -17 12 -71 9 -84 -4z"/>
<path d="M1858 2699 c-15 -8 -18 -25 -18 -102 0 -105 6 -117 62 -117 49 0 58
18 58 119 0 59 -4 84 -16 95 -17 18 -60 20 -86 5z"/>
<path d="M4005 2696 c-21 -15 -25 -67 -5 -90 8 -10 29 -16 56 -16 l44 0 0
-160 c0 -188 -5 -180 119 -180 112 0 111 -1 111 169 0 149 -7 172 -50 172 -60
2 -65 6 -66 50 -1 29 -8 47 -20 56 -24 18 -164 18 -189 -1z"/>
<path d="M747 2591 c-21 -6 -37 -34 -37 -67 0 -34 -13 -44 -59 -44 -35 0 -51
-17 -51 -54 0 -46 13 -59 61 -61 l44 -2 3 -51 3 -52 -40 0 c-48 0 -71 -20 -71
-64 0 -43 16 -56 67 -56 l43 0 0 -55 0 -55 -43 0 c-24 0 -48 -5 -55 -12 -15
-15 -17 -405 -2 -428 7 -12 29 -15 101 -13 51 1 97 7 105 14 17 14 18 71 2 87
-7 7 -31 12 -55 12 l-43 0 0 110 0 110 55 0 55 0 -2 -97 c-1 -54 1 -104 5
-110 10 -16 79 -17 95 -1 7 7 12 31 12 55 l0 43 55 0 55 0 0 -55 0 -55 -43 0
c-51 0 -67 -13 -67 -55 0 -51 10 -57 103 -62 77 -4 88 -2 106 16 14 14 21 34
21 61 l0 40 43 0 c54 0 67 13 67 67 l0 43 55 0 55 0 0 -43 c0 -53 13 -67 62
-67 43 0 58 19 58 74 l0 36 154 0 c169 0 180 4 178 61 -1 56 -10 59 -177 59
l-152 0 -7 102 c-4 56 -9 105 -12 110 -3 4 -52 8 -110 8 l-104 0 0 43 c0 52
-8 65 -45 72 -40 8 -62 -11 -70 -60 -6 -45 -17 -55 -61 -55 -17 0 -36 -6 -42
-13 -6 -7 -13 -56 -14 -108 l-3 -94 -52 -3 -53 -3 0 43 c0 55 -13 68 -67 68
l-43 0 0 55 0 55 43 0 c53 0 67 13 67 62 0 43 -19 58 -75 58 l-36 0 3 52 3 53
40 2 c62 5 65 8 65 62 l0 51 223 2 222 3 3 48 c2 35 -1 49 -12 53 -16 6 -608
11 -629 5z m643 -616 l0 -55 -110 0 -110 0 0 55 0 55 110 0 110 0 0 -55z"/>
<path d="M1530 2592 c-22 -7 -30 -23 -30 -57 0 -40 16 -55 60 -55 20 0 41 5
48 12 14 14 16 66 4 85 -9 14 -58 23 -82 15z"/>
<path d="M1633 2472 c-16 -10 -22 -52 -12 -79 6 -18 16 -23 43 -23 57 0 66 -7
66 -56 0 -33 5 -46 19 -54 28 -15 67 -12 81 5 14 17 20 182 7 203 -9 13 -183
17 -204 4z"/>
<path d="M2982 2468 c-8 -8 -12 -46 -12 -105 0 -104 6 -113 74 -113 l36 0 0
-98 c0 -110 6 -122 60 -122 47 0 60 15 60 67 l0 43 43 0 c24 0 48 5 55 12 16
16 16 190 0 206 -8 8 -48 12 -114 12 l-102 0 2 33 c4 58 -8 77 -52 77 -21 0
-43 -5 -50 -12z"/>
<path d="M952 2358 c-7 -7 -12 -28 -12 -48 0 -53 13 -60 111 -60 98 0 119 11
119 60 0 49 -21 60 -119 60 -54 0 -91 -4 -99 -12z"/>
<path d="M1292 2358 c-7 -7 -12 -29 -12 -50 0 -49 18 -58 112 -58 95 0 119 15
111 68 -3 20 -11 40 -17 44 -19 13 -181 9 -194 -4z"/>
<path d="M1634 2246 c-16 -12 -19 -26 -18 -98 1 -124 -4 -119 116 -116 l102 3
7 28 c4 16 4 40 -1 53 -8 21 -16 24 -60 24 l-50 0 0 50 c0 38 -4 52 -19 60
-27 14 -54 13 -77 -4z"/>
<path d="M4002 2252 c-16 -11 -24 -70 -11 -94 10 -18 60 -25 93 -12 19 7 22
84 4 102 -14 14 -67 16 -86 4z"/>
<path d="M4104 2126 c-3 -8 -4 -31 -2 -52 l3 -39 49 0 c44 0 50 3 58 26 5 16
5 37 -1 52 -9 24 -16 27 -56 27 -30 0 -47 -5 -51 -14z"/>
<path d="M1846 2014 c-13 -33 -6 -83 12 -93 22 -12 84 -4 94 12 12 19 9 72 -4
85 -18 18 -95 15 -102 -4z"/>
<path d="M2412 2013 c-10 -19 -9 -80 2 -91 10 -9 87 -5 98 6 5 5 8 29 6 53
l-3 44 -47 3 c-37 2 -49 -1 -56 -15z"/>
<path d="M1287 1684 c-4 -4 -7 -27 -7 -51 0 -36 4 -45 24 -54 16 -8 34 -8 53
-2 26 9 28 14 28 59 l0 49 -45 3 c-25 2 -49 0 -53 -4z"/>
<path d="M1633 1683 c-7 -2 -13 -15 -13 -28 0 -13 -4 -35 -10 -49 -8 -21 -16
-26 -44 -26 -42 0 -66 -22 -66 -60 0 -35 32 -60 76 -60 30 0 32 -2 37 -46 5
-51 17 -64 63 -64 48 0 54 14 54 122 0 95 1 98 23 99 12 1 25 1 29 0 4 0 18 3
31 8 28 11 40 52 26 88 -8 22 -13 23 -101 22 -51 0 -99 -3 -105 -6z"/>
<path d="M2873 1574 c-8 -4 -13 -25 -13 -54 0 -52 8 -60 60 -60 38 0 52 21 48
72 -3 43 -3 43 -43 45 -22 1 -46 0 -52 -3z"/>
<path d="M780 1491 c-161 -23 -184 -79 -178 -436 5 -250 11 -282 63 -324 54
-42 88 -46 350 -46 276 1 298 5 349 65 43 52 50 96 49 340 -1 241 -8 290 -48
338 -47 56 -87 65 -320 68 -116 1 -235 -1 -265 -5z m469 -122 c20 -7 34 -20
39 -37 13 -47 9 -474 -5 -498 -17 -30 -49 -34 -283 -34 -220 0 -264 7 -274 43
-8 29 -8 446 0 485 4 21 15 34 33 41 37 13 450 14 490 0z"/>
<path d="M930 1263 c-63 -10 -72 -15 -86 -48 -19 -45 -19 -204 0 -249 8 -19
22 -36 33 -39 51 -14 102 -18 176 -11 120 10 127 19 127 172 0 143 -8 160 -86
173 -51 8 -120 9 -164 2z"/>
<path d="M2087 1457 c-15 -10 -17 -27 -15 -112 l3 -100 53 -3 52 -3 0 -55 0
-54 -36 0 c-56 0 -74 -15 -74 -60 0 -51 17 -60 118 -60 65 0 82 3 96 19 10 11
17 28 16 38 -1 10 -2 53 -1 96 l1 77 98 0 c108 0 122 6 122 55 0 51 -8 54
-120 57 l-105 3 3 34 c1 19 -5 45 -13 57 -14 22 -22 24 -98 24 -51 0 -90 -5
-100 -13z"/>
<path d="M2531 1456 c-7 -8 -11 -34 -9 -58 l3 -43 45 -3 c32 -2 48 1 56 13 14
18 7 87 -10 97 -19 13 -73 9 -85 -6z"/>
<path d="M2756 1454 c-18 -18 -21 -56 -6 -85 12 -22 78 -27 98 -7 20 20 15 86
-7 98 -29 15 -67 12 -85 -6z"/>
<path d="M2988 1459 c-21 -12 -25 -78 -6 -97 20 -20 86 -15 98 7 11 22 2 82
-14 93 -16 11 -58 9 -78 -3z"/>
<path d="M4118 1459 c-13 -7 -18 -23 -18 -53 0 -48 9 -56 66 -56 27 0 37 5 43
22 11 29 4 80 -12 90 -17 11 -59 9 -79 -3z"/>
<path d="M1510 1331 c-5 -11 -10 -80 -10 -155 0 -168 -2 -166 119 -166 98 0
111 7 111 60 0 47 -15 60 -67 60 l-43 0 0 98 c0 63 -4 102 -12 110 -20 20 -86
15 -98 -7z"/>
<path d="M1736 1334 c-12 -31 -7 -194 7 -198 50 -16 68 -15 87 4 18 18 20 30
15 105 -2 47 -7 90 -10 95 -11 17 -92 12 -99 -6z"/>
<path d="M3990 1324 c-7 -16 -7 -37 -2 -53 8 -23 14 -26 58 -26 l49 0 0 50 0
50 -48 3 c-43 3 -48 1 -57 -24z"/>
<path d="M4217 1343 c-9 -8 -9 -66 -1 -87 4 -11 19 -16 48 -16 49 0 66 13 66
51 0 50 -9 59 -59 59 -26 0 -51 -3 -54 -7z"/>
<path d="M2527 1233 c-12 -11 -8 -91 5 -99 14 -9 79 -7 89 3 13 13 17 57 8 81
-7 18 -16 22 -52 22 -24 0 -47 -3 -50 -7z"/>
<path d="M2867 1234 c-4 -4 -7 -29 -7 -54 0 -45 2 -48 30 -54 17 -3 42 -1 56
4 23 9 25 14 22 57 l-3 48 -45 3 c-25 2 -49 0 -53 -4z"/>
<path d="M4107 1233 c-4 -3 -7 -26 -7 -49 0 -31 5 -46 18 -52 23 -12 74 -4 88
14 11 14 10 66 -1 85 -7 10 -88 12 -98 2z"/>
<path d="M2988 1119 c-15 -8 -18 -25 -18 -102 0 -59 4 -97 12 -105 16 -16 190
-16 206 0 17 17 15 73 -3 88 -9 7 -32 15 -52 17 -21 2 -39 6 -41 8 -2 2 -6 23
-8 46 -2 24 -10 46 -16 51 -18 11 -60 9 -80 -3z"/>
<path d="M1790 1011 l-55 -6 -3 -38 c-4 -51 11 -67 64 -67 l44 0 0 -44 c0 -52
12 -64 72 -72 44 -6 45 -7 43 -42 -3 -57 21 -72 111 -72 96 0 114 9 114 58 0
49 -14 62 -67 62 l-43 0 0 98 c0 53 -4 103 -9 111 -10 15 -176 23 -271 12z"/>
<path d="M2330 1013 c-25 -9 -40 -35 -40 -69 0 -34 -13 -44 -59 -44 -36 0 -51
-17 -51 -56 0 -39 18 -55 67 -59 37 -2 38 -3 44 -49 6 -51 19 -66 61 -66 38 0
58 25 58 74 l0 42 46 2 c58 2 64 6 64 47 0 57 -7 65 -61 65 l-49 0 0 44 c0 24
-6 48 -12 54 -18 14 -50 21 -68 15z"/>
<path d="M3324 1006 c-11 -8 -14 -24 -12 -56 l3 -45 44 -3 c24 -2 48 1 52 5
14 14 17 71 5 88 -14 19 -71 26 -92 11z"/>
<path d="M2750 991 c-5 -11 -10 -33 -10 -49 0 -32 -14 -42 -60 -42 -35 0 -48
-15 -52 -65 -3 -39 -4 -40 -43 -43 -52 -5 -65 -17 -65 -63 0 -28 5 -41 19 -49
26 -13 386 -13 412 0 14 8 19 21 19 48 0 49 -14 62 -67 62 l-43 0 0 94 c0 52
-3 101 -6 110 -9 25 -90 22 -104 -3z"/>
<path d="M1512 888 c-14 -14 -16 -67 -3 -87 9 -14 80 -19 100 -7 12 8 15 64 5
90 -7 19 -84 22 -102 4z"/>
<path d="M3206 892 c-3 -5 -8 -22 -10 -39 -8 -43 13 -67 59 -66 49 1 57 11 53
64 l-3 44 -47 3 c-25 2 -49 -1 -52 -6z"/>
<path d="M1621 768 c-5 -13 -6 -38 -4 -56 6 -37 38 -51 82 -36 23 9 26 15 26
59 l0 50 -48 3 c-41 3 -48 0 -56 -20z"/>
<path d="M3092 778 c-17 -17 -15 -74 4 -92 18 -18 56 -21 85 -6 22 12 27 78 7
98 -16 16 -80 16 -96 0z"/>
<path d="M3772 778 c-20 -20 -15 -86 7 -98 32 -17 177 -13 195 6 18 18 21 56
6 85 -9 17 -22 19 -103 19 -59 0 -97 -4 -105 -12z"/>
<path d="M1 83 l-1 -83 78 0 77 0 -43 21 c-46 23 -88 71 -102 116 -6 21 -9 7
-9 -54z"/>
<path d="M4990 143 c-1 -32 -54 -96 -99 -120 l-44 -23 76 0 77 0 0 80 c0 44
-2 80 -5 80 -3 0 -5 -8 -5 -17z"/>
</g>
</svg>
