<?xml version="1.0" standalone="no"?>
<!DOCTYPE svg PUBLIC "-//W3C//DTD SVG 20010904//EN"
 "http://www.w3.org/TR/2001/REC-SVG-20010904/DTD/svg10.dtd">
<svg version="1.0" xmlns="http://www.w3.org/2000/svg"
 width="722.000000pt" height="722.000000pt" viewBox="0 0 722.000000 722.000000"
 preserveAspectRatio="xMidYMid meet">

<g transform="translate(0.000000,722.000000) scale(0.100000,-0.100000)"
fill="#000000" stroke="none">
<path d="M0 6455 l0 -765 765 0 765 0 0 765 0 765 -765 0 -765 0 0 -765z
m1310 0 l0 -545 -545 0 -545 0 0 545 0 545 545 0 545 0 0 -545z"/>
<path d="M440 6455 l0 -325 325 0 325 0 0 325 0 325 -325 0 -325 0 0 -325z"/>
<path d="M1970 7110 l0 -110 -110 0 -110 0 0 -110 0 -110 110 0 110 0 0 -110
0 -110 -110 0 -110 0 0 -110 0 -110 220 0 220 0 0 -325 0 -325 110 0 110 0 0
325 0 325 110 0 110 0 0 -105 0 -105 105 0 105 0 0 -110 0 -110 -105 0 -105 0
0 -330 0 -330 215 0 215 0 0 -110 0 -110 110 0 110 0 0 -110 0 -110 -110 0
-110 0 0 -110 0 -110 220 0 220 0 0 220 0 220 110 0 110 0 0 110 0 110 110 0
110 0 0 -220 0 -220 110 0 110 0 0 110 0 110 110 0 110 0 0 -220 0 -220 215 0
215 0 0 -105 0 -105 -325 0 -325 0 0 -110 0 -110 -220 0 -220 0 0 110 0 110
110 0 110 0 0 105 0 105 -110 0 -110 0 0 -105 0 -105 -110 0 -110 0 0 -110 0
-110 -220 0 -220 0 0 110 0 110 -215 0 -215 0 0 215 0 215 105 0 105 0 0 110
0 110 -215 0 -215 0 0 -110 0 -110 -110 0 -110 0 0 220 0 220 110 0 110 0 0
110 0 110 -550 0 -550 0 0 -110 0 -110 -110 0 -110 0 0 110 0 110 -545 0 -545
0 0 -110 0 -110 110 0 110 0 0 -110 0 -110 -110 0 -110 0 0 -110 0 -110 220 0
220 0 0 -110 0 -110 220 0 220 0 0 -105 0 -105 -110 0 -110 0 0 -110 0 -110
110 0 110 0 0 110 0 110 325 0 325 0 0 -110 0 -110 -220 0 -220 0 0 -110 0
-110 220 0 220 0 0 -110 0 -110 -110 0 -110 0 0 -110 0 -110 440 0 440 0 0
-220 0 -220 110 0 110 0 0 -215 0 -215 110 0 110 0 0 -110 0 -110 105 0 105 0
0 -110 0 -110 -105 0 -105 0 0 -220 0 -220 105 0 105 0 0 110 0 110 110 0 110
0 0 -110 0 -110 220 0 220 0 0 -110 0 -110 -110 0 -110 0 0 -110 0 -110 -110
0 -110 0 0 -110 0 -110 110 0 110 0 0 -110 0 -110 -325 0 -325 0 0 220 0 220
105 0 105 0 0 110 0 110 -215 0 -215 0 0 220 0 220 -110 0 -110 0 0 110 0 110
-220 0 -220 0 0 110 0 110 -435 0 -435 0 0 -220 0 -220 105 0 105 0 0 110 0
110 220 0 220 0 0 -110 0 -110 -110 0 -110 0 0 -110 0 -110 110 0 110 0 0 110
0 110 220 0 220 0 0 -110 0 -110 -110 0 -110 0 0 -220 0 -220 220 0 220 0 0
110 0 110 110 0 110 0 0 -220 0 -220 -330 0 -330 0 0 -545 0 -545 220 0 220 0
0 220 0 220 -110 0 -110 0 0 215 0 215 110 0 110 0 0 -105 0 -105 110 0 110 0
0 105 0 105 110 0 110 0 0 -105 0 -105 105 0 105 0 0 -110 0 -110 -105 0 -105
0 0 -220 0 -220 105 0 105 0 0 110 0 110 110 0 110 0 0 -110 0 -110 110 0 110
0 0 110 0 110 220 0 220 0 0 -110 0 -110 110 0 110 0 0 110 0 110 -110 0 -110
0 0 110 0 110 220 0 220 0 0 -110 0 -110 110 0 110 0 0 110 0 110 -110 0 -110
0 0 110 0 110 215 0 215 0 0 215 0 215 330 0 330 0 0 -110 0 -110 110 0 110 0
0 -105 0 -105 -110 0 -110 0 0 -110 0 -110 -110 0 -110 0 0 110 0 110 -110 0
-110 0 0 -110 0 -110 -110 0 -110 0 0 -220 0 -220 550 0 550 0 0 110 0 110
-220 0 -220 0 0 110 0 110 110 0 110 0 0 110 0 110 110 0 110 0 0 -110 0 -110
110 0 110 0 0 110 0 110 -110 0 -110 0 0 105 0 105 220 0 220 0 0 -105 0 -105
545 0 545 0 0 325 0 325 -110 0 -110 0 0 110 0 110 110 0 110 0 0 220 0 220
-110 0 -110 0 0 -220 0 -220 -110 0 -110 0 0 110 0 110 -110 0 -110 0 0 110 0
110 110 0 110 0 0 110 0 110 110 0 110 0 0 110 0 110 110 0 110 0 0 110 0 110
-110 0 -110 0 0 105 0 105 -110 0 -110 0 0 110 0 110 110 0 110 0 0 110 0 110
110 0 110 0 0 110 0 110 -110 0 -110 0 0 110 0 110 -110 0 -110 0 0 110 0 110
110 0 110 0 0 110 0 110 110 0 110 0 0 110 0 110 -220 0 -220 0 0 -220 0 -220
-110 0 -110 0 0 -110 0 -110 110 0 110 0 0 -330 0 -330 -110 0 -110 0 0 220 0
220 -105 0 -105 0 0 110 0 110 -110 0 -110 0 0 110 0 110 -110 0 -110 0 0 220
0 220 325 0 325 0 0 105 0 105 110 0 110 0 0 110 0 110 110 0 110 0 0 110 0
110 110 0 110 0 0 110 0 110 -110 0 -110 0 0 110 0 110 -110 0 -110 0 0 -110
0 -110 -110 0 -110 0 0 110 0 110 -105 0 -105 0 0 -110 0 -110 105 0 105 0 0
-110 0 -110 -325 0 -325 0 0 110 0 110 110 0 110 0 0 110 0 110 -110 0 -110 0
0 -110 0 -110 -110 0 -110 0 0 110 0 110 -220 0 -220 0 0 110 0 110 110 0 110
0 0 110 0 110 -110 0 -110 0 0 -110 0 -110 -110 0 -110 0 0 110 0 110 -110 0
-110 0 0 110 0 110 -215 0 -215 0 0 215 0 215 215 0 215 0 0 -110 0 -110 110
0 110 0 0 -105 0 -105 110 0 110 0 0 105 0 105 110 0 110 0 0 220 0 220 -110
0 -110 0 0 -110 0 -110 -220 0 -220 0 0 110 0 110 110 0 110 0 0 110 0 110
110 0 110 0 0 110 0 110 -330 0 -330 0 0 -110 0 -110 -105 0 -105 0 0 110 0
110 -440 0 -440 0 0 -110 0 -110 -220 0 -220 0 0 110 0 110 -110 0 -110 0 0
-110 0 -110 -215 0 -215 0 0 -110 0 -110 -110 0 -110 0 0 220 0 220 -110 0
-110 0 0 -110z m1090 -220 l0 -110 110 0 110 0 0 -110 0 -110 220 0 220 0 0
110 0 110 110 0 110 0 0 110 0 110 220 0 220 0 0 -110 0 -110 -110 0 -110 0 0
-220 0 -220 -330 0 -330 0 0 -105 0 -105 440 0 440 0 0 -220 0 -220 105 0 105
0 0 110 0 110 110 0 110 0 0 -110 0 -110 110 0 110 0 0 -110 0 -110 110 0 110
0 0 -110 0 -110 220 0 220 0 0 -110 0 -110 110 0 110 0 0 -110 0 -110 110 0
110 0 0 -110 0 -110 -110 0 -110 0 0 -105 0 -105 -110 0 -110 0 0 215 0 215
-110 0 -110 0 0 -110 0 -110 -110 0 -110 0 0 110 0 110 -110 0 -110 0 0 110 0
110 110 0 110 0 0 110 0 110 -110 0 -110 0 0 110 0 110 -110 0 -110 0 0 -110
0 -110 -110 0 -110 0 0 110 0 110 -105 0 -105 0 0 -110 0 -110 -220 0 -220 0
0 110 0 110 -110 0 -110 0 0 220 0 220 -110 0 -110 0 0 -110 0 -110 -110 0
-110 0 0 110 0 110 -110 0 -110 0 0 -220 0 -220 110 0 110 0 0 -110 0 -110
110 0 110 0 0 -110 0 -110 -110 0 -110 0 0 110 0 110 -110 0 -110 0 0 110 0
110 -110 0 -110 0 0 220 0 220 110 0 110 0 0 110 0 110 -110 0 -110 0 0 105 0
105 -105 0 -105 0 0 220 0 220 105 0 105 0 0 110 0 110 110 0 110 0 0 -110z
m-650 -440 l0 -110 -110 0 -110 0 0 110 0 110 110 0 110 0 0 -110z m-1530
-1420 l0 -220 -110 0 -110 0 0 220 0 220 110 0 110 0 0 -220z m650 110 l0
-110 220 0 220 0 0 -110 0 -110 -220 0 -220 0 0 -110 0 -110 220 0 220 0 0
-215 0 -215 -110 0 -110 0 0 -110 0 -110 110 0 110 0 0 -110 0 -110 -110 0
-110 0 0 110 0 110 -110 0 -110 0 0 110 0 110 110 0 110 0 0 110 0 110 -110 0
-110 0 0 105 0 105 -220 0 -220 0 0 220 0 220 110 0 110 0 0 110 0 110 110 0
110 0 0 -110z m5250 -220 l0 -110 -110 0 -110 0 0 -110 0 -110 -105 0 -105 0
0 110 0 110 105 0 105 0 0 110 0 110 110 0 110 0 0 -110z m-4370 -435 l0 -105
110 0 110 0 0 -110 0 -110 105 0 105 0 0 -110 0 -110 -105 0 -105 0 0 -220 0
-220 105 0 105 0 0 110 0 110 110 0 110 0 0 110 0 110 220 0 220 0 0 110 0
110 110 0 110 0 0 -110 0 -110 220 0 220 0 0 110 0 110 325 0 325 0 0 110 0
110 110 0 110 0 0 -110 0 -110 330 0 330 0 0 -220 0 -220 110 0 110 0 0 -110
0 -110 220 0 220 0 0 -220 0 -220 105 0 105 0 0 -110 0 -110 110 0 110 0 0
-325 0 -325 -110 0 -110 0 0 220 0 220 -105 0 -105 0 0 -330 0 -330 -220 0
-220 0 0 110 0 110 -110 0 -110 0 0 -110 0 -110 -220 0 -220 0 0 -220 0 -220
-220 0 -220 0 0 -110 0 -110 -110 0 -110 0 0 220 0 220 -215 0 -215 0 0 -110
0 -110 110 0 110 0 0 -330 0 -330 -220 0 -220 0 0 -105 0 -105 -110 0 -110 0
0 -110 0 -110 -110 0 -110 0 0 110 0 110 -110 0 -110 0 0 105 0 105 110 0 110
0 0 220 0 220 220 0 220 0 0 -110 0 -110 110 0 110 0 0 220 0 220 -220 0 -220
0 0 110 0 110 110 0 110 0 0 110 0 110 -440 0 -440 0 0 110 0 110 330 0 330 0
0 220 0 220 110 0 110 0 0 105 0 105 -330 0 -330 0 0 -105 0 -105 110 0 110 0
0 -110 0 -110 -110 0 -110 0 0 110 0 110 -325 0 -325 0 0 215 0 215 105 0 105
0 0 110 0 110 -215 0 -215 0 0 110 0 110 -110 0 -110 0 0 110 0 110 110 0 110
0 0 330 0 330 -110 0 -110 0 0 105 0 105 110 0 110 0 0 -105z m3720 -3065 l0
-330 -330 0 -330 0 0 330 0 330 330 0 330 0 0 -330z m430 220 l0 -110 110 0
110 0 0 -110 0 -110 110 0 110 0 0 -110 0 -110 -110 0 -110 0 0 -110 0 -110
-110 0 -110 0 0 110 0 110 110 0 110 0 0 110 0 110 -110 0 -110 0 0 110 0 110
-105 0 -105 0 0 110 0 110 105 0 105 0 0 -110z m-3280 -1310 l0 -110 -110 0
-110 0 0 110 0 110 110 0 110 0 0 -110z"/>
<path d="M2840 6450 l0 -110 110 0 110 0 0 110 0 110 -110 0 -110 0 0 -110z"/>
<path d="M3280 6020 l0 -110 110 0 110 0 0 110 0 110 -110 0 -110 0 0 -110z"/>
<path d="M3940 5800 l0 -110 110 0 110 0 0 -110 0 -110 110 0 110 0 0 110 0
110 -110 0 -110 0 0 110 0 110 -110 0 -110 0 0 -110z"/>
<path d="M4590 5580 l0 -110 110 0 110 0 0 110 0 110 -110 0 -110 0 0 -110z"/>
<path d="M5250 4920 l0 -110 110 0 110 0 0 110 0 110 -110 0 -110 0 0 -110z"/>
<path d="M1310 4920 l0 -110 110 0 110 0 0 110 0 110 -110 0 -110 0 0 -110z"/>
<path d="M3500 3830 l0 -110 110 0 110 0 0 -110 0 -110 110 0 110 0 0 110 0
110 -110 0 -110 0 0 110 0 110 -110 0 -110 0 0 -110z"/>
<path d="M4380 3830 l0 -110 -110 0 -110 0 0 -220 0 -220 215 0 215 0 0 110 0
110 -105 0 -105 0 0 110 0 110 215 0 215 0 0 110 0 110 -215 0 -215 0 0 -110z"/>
<path d="M5250 3720 l0 -220 -110 0 -110 0 0 -110 0 -110 -110 0 -110 0 0
-110 0 -110 -110 0 -110 0 0 -110 0 -110 110 0 110 0 0 -105 0 -105 110 0 110
0 0 -110 0 -110 110 0 110 0 0 110 0 110 -110 0 -110 0 0 105 0 105 110 0 110
0 0 110 0 110 110 0 110 0 0 -215 0 -215 110 0 110 0 0 -110 0 -110 110 0 110
0 0 -110 0 -110 110 0 110 0 0 110 0 110 -110 0 -110 0 0 110 0 110 220 0 220
0 0 215 0 215 -110 0 -110 0 0 110 0 110 -110 0 -110 0 0 110 0 110 -110 0
-110 0 0 110 0 110 -110 0 -110 0 0 110 0 110 -110 0 -110 0 0 -220z m220
-330 l0 -110 -110 0 -110 0 0 -110 0 -110 -110 0 -110 0 0 -110 0 -110 -110 0
-110 0 0 110 0 110 110 0 110 0 0 110 0 110 110 0 110 0 0 110 0 110 110 0
110 0 0 -110z m440 -220 l0 -110 110 0 110 0 0 -110 0 -110 -110 0 -110 0 0
-105 0 -105 -110 0 -110 0 0 325 0 325 110 0 110 0 0 -110z"/>
<path d="M3060 3610 l0 -110 110 0 110 0 0 110 0 110 -110 0 -110 0 0 -110z"/>
<path d="M3280 3170 l0 -110 -110 0 -110 0 0 -110 0 -110 110 0 110 0 0 110 0
110 220 0 220 0 0 110 0 110 -220 0 -220 0 0 -110z"/>
<path d="M3940 2950 l0 -110 220 0 220 0 0 110 0 110 -220 0 -220 0 0 -110z"/>
<path d="M3940 2520 l0 -110 325 0 325 0 0 -220 0 -220 110 0 110 0 0 -110 0
-110 110 0 110 0 0 220 0 220 -110 0 -110 0 0 110 0 110 -110 0 -110 0 0 110
0 110 -325 0 -325 0 0 -110z"/>
<path d="M4160 2080 l0 -110 110 0 110 0 0 110 0 110 -110 0 -110 0 0 -110z"/>
<path d="M3500 765 l0 -105 110 0 110 0 0 105 0 105 -110 0 -110 0 0 -105z"/>
<path d="M5690 1420 l0 -110 110 0 110 0 0 110 0 110 -110 0 -110 0 0 -110z"/>
<path d="M5690 6455 l0 -765 765 0 765 0 0 765 0 765 -765 0 -765 0 0 -765z
m1310 0 l0 -545 -545 0 -545 0 0 545 0 545 545 0 545 0 0 -545z"/>
<path d="M6130 6455 l0 -325 325 0 325 0 0 325 0 325 -325 0 -325 0 0 -325z"/>
<path d="M1750 5910 l0 -220 110 0 110 0 0 220 0 220 -110 0 -110 0 0 -220z"/>
<path d="M220 4050 l0 -110 110 0 110 0 0 -110 0 -110 110 0 110 0 0 -220 0
-220 215 0 215 0 0 110 0 110 -105 0 -105 0 0 220 0 220 -220 0 -220 0 0 110
0 110 -110 0 -110 0 0 -110z"/>
<path d="M0 3610 l0 -110 110 0 110 0 0 -110 0 -110 110 0 110 0 0 110 0 110
-110 0 -110 0 0 110 0 110 -110 0 -110 0 0 -110z"/>
<path d="M1310 3170 l0 -110 -110 0 -110 0 0 -110 0 -110 110 0 110 0 0 -105
0 -105 110 0 110 0 0 105 0 105 110 0 110 0 0 -105 0 -105 220 0 220 0 0 105
0 105 -220 0 -220 0 0 110 0 110 110 0 110 0 0 110 0 110 -110 0 -110 0 0
-110 0 -110 -110 0 -110 0 0 110 0 110 -110 0 -110 0 0 -110z m220 -220 l0
-110 -110 0 -110 0 0 110 0 110 110 0 110 0 0 -110z"/>
<path d="M0 2950 l0 -110 110 0 110 0 0 -105 0 -105 -110 0 -110 0 0 -440 0
-440 110 0 110 0 0 440 0 440 110 0 110 0 0 105 0 105 110 0 110 0 0 -105 0
-105 110 0 110 0 0 105 0 105 -110 0 -110 0 0 110 0 110 -330 0 -330 0 0 -110z"/>
<path d="M440 1970 l0 -220 110 0 110 0 0 220 0 220 -110 0 -110 0 0 -220z"/>
<path d="M0 765 l0 -765 765 0 765 0 0 765 0 765 -765 0 -765 0 0 -765z m1310
0 l0 -545 -545 0 -545 0 0 545 0 545 545 0 545 0 0 -545z"/>
<path d="M440 765 l0 -325 325 0 325 0 0 325 0 325 -325 0 -325 0 0 -325z"/>
<path d="M6350 330 l0 -110 215 0 215 0 0 -110 0 -110 110 0 110 0 0 110 0
110 -110 0 -110 0 0 110 0 110 -215 0 -215 0 0 -110z"/>
</g>
</svg>
