<?xml version="1.0" standalone="no"?>
<!DOCTYPE svg PUBLIC "-//W3C//DTD SVG 20010904//EN"
 "http://www.w3.org/TR/2001/REC-SVG-20010904/DTD/svg10.dtd">
<svg version="1.0" xmlns="http://www.w3.org/2000/svg"
 width="500.000000pt" height="500.000000pt" viewBox="0 0 500.000000 500.000000"
 preserveAspectRatio="xMidYMid meet">

<g transform="translate(0.000000,500.000000) scale(0.100000,-0.100000)"
fill="#000000" stroke="none">
<path d="M1 4918 c1 -66 3 -77 10 -52 13 45 69 103 114 119 l40 14 -82 1 -83
0 1 -82z"/>
<path d="M4875 4985 c45 -16 101 -74 114 -119 7 -25 9 -14 10 52 l1 82 -82 0
-83 -1 40 -14z"/>
<path d="M769 4387 c-151 -34 -173 -98 -167 -494 4 -269 9 -297 65 -355 53
-56 100 -63 398 -63 298 0 345 7 398 63 55 58 60 92 61 392 1 304 -6 349 -62
403 -60 57 -83 61 -372 64 -183 1 -282 -2 -321 -10z m578 -132 c13 -4 27 -21
33 -41 14 -42 15 -521 0 -558 -5 -14 -21 -31 -35 -36 -35 -13 -533 -14 -567
-1 -38 14 -45 59 -47 301 -1 207 7 302 27 322 7 7 31 15 54 19 54 9 505 4 535
-6z"/>
<path d="M1017 4130 c-142 -7 -146 -11 -149 -154 -4 -236 -4 -236 201 -236
123 0 131 1 158 24 28 24 28 25 31 159 5 212 -3 219 -241 207z"/>
<path d="M1895 4390 c-10 -17 -13 -84 -3 -102 6 -14 21 -18 58 -18 54 0 70 15
70 65 0 50 -16 65 -70 65 -27 0 -52 -4 -55 -10z"/>
<path d="M2156 4384 c-9 -8 -16 -32 -16 -53 0 -47 -14 -61 -61 -61 -61 0 -69
-16 -69 -135 0 -68 -4 -106 -12 -111 -6 -4 -57 -8 -114 -8 -59 -1 -108 -6
-114 -12 -6 -6 -12 -29 -15 -53 -6 -56 -10 -61 -51 -61 -74 0 -74 0 -74 -193
0 -121 4 -177 12 -185 7 -7 31 -12 55 -12 51 0 63 17 63 84 l0 46 55 0 c70 0
75 9 75 144 l0 106 108 0 c150 0 148 -2 144 144 l-2 116 130 0 130 0 0 -120
c0 -136 2 -140 84 -140 l46 0 0 -55 c0 -61 8 -69 69 -69 43 0 61 24 61 81 l0
43 49 0 c60 0 81 22 81 87 l0 42 52 3 c74 4 78 15 72 207 -3 90 -9 160 -16
168 -12 15 -76 17 -98 3 -11 -7 -16 -35 -18 -117 -4 -123 -9 -133 -79 -133
l-43 0 0 114 c0 131 -7 146 -69 146 -46 0 -56 -11 -65 -72 -4 -27 -13 -49 -22
-52 -9 -3 -65 -6 -125 -6 l-109 0 0 53 c0 29 -5 58 -12 65 -17 17 -84 15 -102
-4z"/>
<path d="M3182 4388 c-7 -7 -12 -29 -12 -49 0 -48 -21 -69 -69 -69 -56 0 -61
-11 -61 -132 0 -117 5 -128 65 -128 52 0 65 16 65 75 l0 55 55 0 c69 0 75 10
75 130 0 115 -7 130 -63 130 -24 0 -48 -5 -55 -12z"/>
<path d="M3573 4390 c-52 -11 -80 -25 -116 -58 -48 -46 -59 -104 -62 -342 -6
-381 18 -460 150 -500 53 -16 489 -24 575 -9 116 19 171 67 190 168 13 70 13
523 -1 581 -15 68 -53 118 -107 143 -44 21 -64 22 -317 24 -148 1 -289 -2
-312 -7z m574 -138 c13 -7 26 -25 30 -40 14 -47 10 -544 -4 -568 -18 -31 -52
-35 -310 -35 -242 -1 -295 4 -315 29 -17 20 -25 520 -8 574 9 32 15 38 48 43
20 4 44 8 52 10 8 2 121 3 250 2 166 -2 242 -6 257 -15z"/>
<path d="M3820 4130 c-58 -3 -113 -9 -122 -14 -30 -14 -40 -75 -37 -204 5
-167 4 -166 180 -170 140 -4 181 5 201 42 14 26 23 189 14 249 -14 92 -49 106
-236 97z"/>
<path d="M1637 4133 c-12 -11 -8 -98 5 -111 7 -7 30 -12 53 -12 51 0 65 13 65
61 0 62 -6 69 -64 69 -29 0 -56 -3 -59 -7z"/>
<path d="M2960 4013 c-50 -9 -50 -10 -50 -257 0 -167 3 -235 12 -244 7 -7 30
-12 53 -12 53 0 65 13 65 72 0 50 5 54 63 48 10 -1 29 6 43 14 19 13 24 25 24
56 0 53 -20 70 -81 70 l-49 0 0 120 c0 120 0 121 -26 130 -14 6 -26 9 -27 9
-1 -1 -13 -4 -27 -6z"/>
<path d="M2163 3875 c-17 -12 -23 -26 -23 -54 0 -50 20 -66 82 -65 l48 0 0
-52 c0 -60 13 -75 64 -77 59 -2 66 12 66 127 0 55 -5 108 -10 116 -14 23 -197
27 -227 5z"/>
<path d="M3186 3877 c-13 -10 -17 -24 -14 -62 l3 -50 60 0 60 0 3 50 c4 57
-12 75 -63 75 -17 0 -39 -6 -49 -13z"/>
<path d="M1895 3614 c-12 -12 -15 -27 -11 -56 8 -55 11 -58 66 -58 54 0 70 15
70 65 0 48 -16 65 -65 65 -27 0 -50 -6 -60 -16z"/>
<path d="M2156 3614 c-9 -8 -16 -32 -16 -53 0 -47 -14 -61 -61 -61 -47 0 -69
-21 -69 -65 0 -47 22 -65 81 -65 l49 0 0 -113 c0 -146 1 -147 129 -147 133 0
131 -2 131 129 0 76 -4 112 -13 119 -7 6 -35 12 -62 14 l-50 3 -3 114 c-1 64
-8 121 -14 128 -15 18 -83 16 -102 -3z"/>
<path d="M2412 3621 c-9 -5 -12 -25 -10 -62 l3 -54 54 -3 c37 -2 57 1 62 10
13 20 11 92 -3 106 -14 14 -86 16 -106 3z"/>
<path d="M2665 3607 c-12 -18 -14 -44 -9 -122 3 -61 10 -102 17 -107 7 -4 33
-8 60 -8 l47 0 0 -43 c0 -23 7 -53 16 -65 14 -20 23 -22 118 -22 66 0 106 4
114 12 7 7 12 30 12 53 0 53 -13 65 -72 65 -51 0 -55 5 -56 73 0 43 -18 57
-73 57 l-49 0 0 43 c0 60 -21 87 -70 87 -30 0 -43 -5 -55 -23z"/>
<path d="M3181 3616 c-7 -8 -11 -36 -9 -63 l3 -48 48 -3 c27 -2 55 2 63 9 17
14 19 90 2 107 -17 17 -93 15 -107 -2z"/>
<path d="M1771 3487 c-6 -8 -13 -33 -16 -58 -7 -50 -16 -59 -65 -59 -55 0 -60
-11 -60 -132 0 -118 5 -128 68 -128 41 0 62 28 62 83 l0 47 114 0 c85 0 116 4
125 14 16 19 21 66 10 94 -7 19 -15 22 -64 22 l-55 0 0 49 c0 32 -6 55 -16 65
-19 20 -87 21 -103 3z"/>
<path d="M3052 3488 c-16 -16 -16 -90 0 -106 18 -18 105 -15 112 4 10 27 7 89
-6 102 -7 7 -30 12 -53 12 -23 0 -46 -5 -53 -12z"/>
<path d="M742 3358 c-7 -7 -12 -28 -12 -47 0 -49 -8 -57 -58 -64 -74 -9 -72
-2 -72 -262 0 -180 3 -235 13 -243 7 -6 64 -13 128 -14 l114 -3 3 -114 c1 -64
8 -121 14 -128 6 -8 32 -13 64 -13 l54 0 -1 -162 c-1 -208 -2 -212 -59 -216
-67 -5 -70 -11 -70 -128 0 -134 0 -134 -134 -134 -66 0 -106 -4 -114 -12 -7
-7 -12 -31 -12 -55 0 -32 5 -45 19 -53 25 -13 460 -13 481 0 13 8 15 57 18
320 l3 310 42 0 c72 0 81 14 83 121 3 144 8 139 -136 139 l-120 0 0 65 0 64
122 3 122 3 8 33 c6 22 5 41 -4 60 -13 27 -14 27 -131 30 l-117 3 0 49 c0 57
-18 80 -61 80 -49 0 -69 -16 -69 -56 0 -61 -13 -74 -75 -74 l-55 0 0 125 0
125 190 0 190 0 0 -43 c0 -64 17 -81 79 -80 l51 0 0 -47 c0 -69 17 -84 91 -81
32 1 48 33 43 82 l-4 36 117 7 c64 3 122 11 130 17 14 12 18 76 5 96 -5 8 -51
15 -127 19 l-120 7 -1 49 c-1 27 -6 54 -12 60 -5 5 -33 11 -62 12 l-52 1 -3
54 c-3 61 -13 71 -72 71 -49 0 -63 -17 -63 -74 0 -49 -19 -56 -144 -56 l-106
0 0 53 c0 64 -11 77 -65 77 -23 0 -46 -5 -53 -12z"/>
<path d="M1376 3355 c-10 -28 -7 -90 6 -103 17 -17 93 -15 107 2 7 8 11 36 9
63 l-3 48 -56 3 c-45 2 -58 0 -63 -13z"/>
<path d="M3313 3362 c-7 -4 -15 -30 -18 -57 -4 -27 -7 -51 -8 -52 -1 -1 -22
-4 -46 -7 -58 -7 -71 -20 -71 -72 0 -52 16 -64 85 -64 l46 0 -2 -115 c-1 -67
2 -120 8 -126 18 -18 85 -17 105 3 15 15 18 35 18 128 l0 110 45 0 c53 0 85
25 85 68 0 45 -19 61 -77 64 l-53 3 0 43 c0 65 -13 82 -63 82 -23 0 -47 -4
-54 -8z"/>
<path d="M3560 3351 c-14 -28 -12 -63 6 -89 12 -18 25 -22 65 -22 l49 0 0 -65
0 -65 -55 0 c-43 0 -56 -4 -65 -19 -5 -11 -10 -86 -10 -171 0 -85 5 -160 10
-171 8 -14 21 -19 53 -19 67 0 68 3 70 133 1 70 6 117 12 118 6 0 29 2 51 3
23 2 47 6 53 10 6 4 11 32 11 62 l0 54 65 0 65 0 0 -55 c0 -49 3 -57 23 -64
26 -10 76 -4 95 11 6 6 12 32 12 59 l0 49 60 0 60 0 0 -60 0 -60 -41 0 c-65 0
-79 -13 -79 -71 0 -54 0 -54 72 -64 l47 -6 3 -240 c3 -225 4 -242 22 -255 11
-8 34 -14 52 -14 64 0 64 -2 64 455 0 337 -3 415 -14 430 -13 18 -26 19 -130
17 l-116 -2 0 53 c0 64 -11 77 -65 77 -50 0 -65 -13 -65 -59 0 -54 -11 -63
-71 -65 l-54 -1 -3 50 c-2 27 -8 55 -14 62 -7 9 -43 13 -119 13 -97 0 -109 -2
-119 -19z"/>
<path d="M2684 3239 c-12 -4 -24 -14 -27 -22 -9 -25 0 -89 15 -98 22 -14 86
-10 102 7 19 19 21 74 3 98 -15 20 -61 27 -93 15z"/>
<path d="M1784 3110 c-17 -7 -23 -19 -26 -57 -8 -79 -3 -172 10 -185 17 -17
95 -11 110 9 18 25 17 207 -2 222 -19 16 -65 21 -92 11z"/>
<path d="M3826 2974 c-20 -20 -23 -213 -4 -232 7 -7 30 -12 53 -12 23 0 46 5
53 12 8 8 12 48 12 114 0 116 -9 134 -65 134 -18 0 -41 -7 -49 -16z"/>
<path d="M2231 2888 c-49 -14 -78 -35 -103 -77 -22 -34 -23 -48 -26 -246 -2
-115 -1 -233 3 -262 8 -62 37 -109 85 -137 32 -19 54 -21 274 -24 266 -4 303
2 350 59 42 50 48 94 44 343 -3 210 -5 234 -23 265 -26 44 -62 70 -111 81 -52
12 -450 11 -493 -2z m90 -274 c8 -65 34 -119 69 -144 16 -11 31 -20 34 -20 3
0 6 50 6 110 l0 110 45 0 45 0 0 -65 c0 -36 4 -65 10 -65 20 0 79 63 90 95 11
33 14 35 56 35 33 0 44 -4 44 -15 0 -26 -30 -77 -66 -116 l-34 -35 31 -23 c32
-24 89 -106 89 -128 0 -9 -15 -13 -47 -13 -44 0 -49 3 -64 33 -16 33 -71 77
-95 77 -10 0 -14 -15 -14 -55 0 -54 -1 -55 -28 -55 -52 0 -133 31 -171 65 -47
42 -88 131 -97 209 l-7 57 49 -3 49 -3 6 -51z"/>
<path d="M1382 2848 c-17 -17 -15 -93 2 -107 8 -7 36 -11 63 -9 l48 3 3 48 c2
27 -2 55 -9 63 -14 17 -90 19 -107 2z"/>
<path d="M1648 2849 c-12 -6 -18 -22 -18 -45 0 -57 -14 -74 -63 -74 -54 0 -67
-13 -67 -65 0 -54 13 -65 77 -65 l53 0 0 -60 c0 -33 -1 -60 -2 -61 -2 0 -25
-3 -53 -6 -65 -7 -75 -16 -75 -69 0 -58 14 -64 149 -64 l111 0 0 -60 0 -60
-111 0 c-133 0 -149 -7 -149 -60 0 -65 -5 -70 -71 -70 l-59 0 0 59 0 59 56 4
c62 5 74 16 74 68 0 59 -9 64 -114 68 -77 3 -101 1 -121 -12 -25 -16 -25 -17
-25 -177 0 -91 4 -169 10 -180 10 -17 22 -19 130 -19 l120 0 0 -53 c0 -29 5
-58 12 -65 16 -16 93 -15 106 1 6 7 13 64 14 127 l3 114 115 3 c95 2 117 6
127 20 16 21 18 315 3 344 -9 15 -22 19 -65 19 l-55 0 0 65 0 65 55 0 c60 0
75 13 75 69 0 43 -23 61 -81 61 l-49 0 0 49 c0 32 -6 55 -16 65 -17 18 -70 21
-96 5z"/>
<path d="M3181 2846 c-7 -8 -11 -36 -9 -63 l3 -48 54 -3 c37 -2 57 1 62 10 13
20 11 92 -3 106 -17 17 -93 15 -107 -2z"/>
<path d="M3439 2714 c-7 -9 -14 -34 -15 -56 -2 -47 -15 -58 -65 -58 -45 0 -63
-20 -62 -66 2 -51 17 -64 79 -64 l53 0 -2 -51 c-2 -61 15 -79 80 -79 l43 0 0
-45 c0 -53 25 -85 68 -85 59 0 67 17 66 134 0 68 -5 111 -12 118 -7 7 -34 11
-61 11 l-49 -1 -4 120 c-2 92 -6 121 -18 128 -24 15 -86 12 -101 -6z"/>
<path d="M3696 2714 c-23 -22 -23 -206 0 -228 18 -19 85 -21 102 -4 8 8 12 49
12 118 0 69 -4 110 -12 118 -17 17 -84 15 -102 -4z"/>
<path d="M3952 2718 c-13 -13 -16 -75 -6 -102 7 -19 94 -22 112 -4 16 16 16
90 0 106 -7 7 -30 12 -53 12 -23 0 -46 -5 -53 -12z"/>
<path d="M606 2585 c-10 -28 -7 -90 6 -103 17 -17 93 -15 107 2 7 8 11 36 9
63 l-3 48 -56 3 c-45 2 -58 0 -63 -13z"/>
<path d="M1376 2585 c-10 -28 -7 -90 6 -103 17 -17 93 -15 107 2 7 8 11 36 9
63 l-3 48 -56 3 c-45 2 -58 0 -63 -13z"/>
<path d="M752 2464 c-16 -11 -22 -25 -22 -52 0 -51 -10 -62 -59 -67 -67 -6
-71 -14 -71 -130 0 -77 4 -106 14 -115 20 -16 212 -16 231 0 20 17 22 342 2
358 -23 19 -72 22 -95 6z"/>
<path d="M3110 2473 c-24 -3 -50 -9 -57 -15 -16 -13 -18 -205 -3 -228 6 -10
25 -15 55 -15 55 0 65 12 65 78 l0 47 49 0 c32 0 55 6 65 16 19 19 21 87 3
102 -15 13 -110 20 -177 15z"/>
<path d="M3845 2473 c-27 -7 -35 -21 -35 -68 0 -52 13 -65 65 -65 23 0 46 5
53 12 13 13 17 104 5 111 -15 9 -68 15 -88 10z"/>
<path d="M4093 2339 c-20 -7 -23 -16 -23 -58 0 -39 4 -53 19 -61 29 -15 77
-12 95 6 16 16 22 80 8 100 -10 15 -72 23 -99 13z"/>
<path d="M3188 2209 c-13 -7 -18 -22 -18 -52 0 -71 -2 -70 190 -71 158 -1 173
1 186 19 20 27 17 72 -6 95 -18 18 -33 20 -177 20 -89 0 -166 -5 -175 -11z"/>
<path d="M3702 2204 c-20 -14 -22 -23 -22 -110 0 -117 8 -134 60 -134 70 0 70
-1 70 126 0 102 -2 114 -19 124 -28 14 -63 12 -89 -6z"/>
<path d="M4215 2206 c-16 -12 -20 -29 -23 -93 -2 -43 0 -94 5 -113 9 -33 11
-35 58 -38 67 -4 75 8 75 125 0 80 -3 96 -20 113 -23 23 -68 26 -95 6z"/>
<path d="M1901 1951 c-19 -12 -18 -100 1 -112 7 -5 64 -9 126 -9 l112 0 0 -62
0 -63 -51 -1 c-28 -1 -56 -7 -62 -13 -7 -7 -14 -57 -17 -124 l-5 -112 -47 -5
c-59 -7 -70 -18 -72 -69 -1 -52 10 -62 73 -64 l51 -2 0 -43 c0 -65 13 -82 63
-82 57 0 67 9 73 66 3 27 7 50 8 51 1 1 55 3 121 4 l120 2 3 -49 c2 -27 8 -54
14 -61 7 -9 43 -13 119 -13 120 0 129 5 129 69 0 43 -23 61 -81 61 l-49 0 0
60 0 60 43 0 c65 0 87 21 87 81 l0 49 49 0 c60 0 81 22 81 87 l0 43 49 0 c59
0 72 13 79 80 l5 50 58 0 59 0 0 -55 c0 -64 13 -75 85 -75 l46 0 -3 -62 -3
-63 -46 0 c-60 0 -77 -16 -81 -73 l-3 -47 -113 -5 c-124 -5 -142 -14 -142 -70
0 -46 22 -64 79 -64 l51 -1 0 -62 0 -63 -114 0 c-79 0 -117 -4 -124 -12 -6 -7
-13 -53 -17 -103 -8 -120 1 -139 73 -143 l52 -3 0 -110 c0 -162 -35 -149 390
-149 337 0 351 1 370 20 14 14 20 33 20 65 l0 45 45 0 c58 0 84 24 79 71 -7
61 -4 60 -131 57 l-118 -3 -10 -54 c-11 -53 -27 -71 -62 -65 -7 1 -24 2 -38 3
-24 1 -25 4 -25 61 l0 60 49 0 c59 0 81 18 81 65 0 62 -11 65 -211 65 l-180 0
3 63 3 62 253 3 252 2 0 -49 c0 -60 18 -81 68 -81 50 0 62 10 64 51 2 76 4 79
57 79 27 0 53 6 59 13 6 7 12 35 14 62 l3 50 54 2 c61 2 71 11 71 65 0 50 -21
68 -81 68 l-49 0 0 125 0 125 53 0 c29 0 58 5 65 12 16 16 16 220 0 236 -7 7
-31 12 -55 12 -48 0 -63 -17 -63 -72 0 -19 -5 -39 -12 -46 -16 -16 -108 -16
-109 1 -1 6 -2 29 -4 50 -5 51 -20 67 -66 67 -50 0 -69 -21 -69 -75 0 -30 -5
-45 -16 -49 -9 -3 -65 -6 -125 -6 l-109 0 0 46 c0 90 28 84 -384 84 -279 0
-366 -3 -373 -12 -21 -26 -24 -70 -8 -94 13 -20 24 -24 65 -24 l50 0 0 -65 0
-65 -109 2 c-125 2 -141 -5 -141 -61 0 -50 -10 -61 -58 -65 -56 -5 -70 -19
-74 -74 l-3 -47 -62 -3 -63 -3 0 61 0 60 46 0 c71 0 84 11 84 75 l0 55 46 0
c67 0 84 12 84 63 0 24 -5 48 -12 55 -7 7 -36 12 -65 12 l-53 0 0 53 c0 29 -5
58 -12 65 -14 14 -335 17 -357 3z m1777 -438 l-3 -188 -187 -3 -188 -2 0 190
0 190 190 0 190 0 -2 -187z"/>
<path d="M3457 1573 c-39 -10 -44 -103 -6 -123 27 -15 76 -12 93 6 19 19 21
74 4 96 -14 17 -62 28 -91 21z"/>
<path d="M4082 1948 c-8 -8 -12 -46 -12 -102 0 -127 -3 -133 -56 -139 -60 -6
-74 -21 -74 -73 0 -58 14 -64 144 -64 l106 0 0 -60 0 -60 -41 0 c-65 0 -79
-13 -79 -71 0 -62 4 -64 133 -64 86 0 100 2 113 19 11 16 14 66 14 242 0 256
1 254 -81 254 l-49 0 0 46 c0 67 -12 84 -63 84 -24 0 -48 -5 -55 -12z"/>
<path d="M1382 1818 c-15 -15 -16 -90 0 -106 17 -17 93 -15 107 2 7 8 11 36 9
63 l-3 48 -50 3 c-30 2 -55 -2 -63 -10z"/>
<path d="M1665 1701 c-28 -6 -30 -10 -33 -54 -4 -59 9 -77 55 -77 56 0 73 15
73 63 0 23 -4 47 -8 53 -10 15 -51 22 -87 15z"/>
<path d="M2939 1696 c-32 -15 -40 -93 -13 -113 22 -16 86 -17 102 -1 16 16 16
107 0 113 -33 12 -67 12 -89 1z"/>
<path d="M825 1600 c-87 -10 -130 -27 -163 -65 -54 -60 -57 -84 -57 -400 0
-289 0 -290 25 -340 29 -58 71 -89 141 -104 64 -14 529 -14 589 0 97 22 142
78 161 200 14 88 6 505 -10 559 -30 99 -85 135 -229 150 -99 11 -367 11 -457
0z m540 -151 c24 -23 31 -142 25 -387 -6 -243 -3 -236 -94 -247 -28 -4 -152
-5 -276 -3 -243 3 -264 8 -277 56 -10 36 -10 496 0 544 6 27 15 39 35 47 16 6
133 9 299 8 234 -2 275 -4 288 -18z"/>
<path d="M919 1329 c-40 -15 -48 -46 -50 -188 -3 -152 5 -173 73 -192 52 -14
244 -8 274 9 37 20 46 60 42 201 -4 178 -2 175 -181 178 -72 1 -144 -2 -158
-8z"/>
<path d="M1641 1306 c-7 -8 -11 -36 -9 -63 l3 -48 54 -3 c37 -2 57 1 62 10 13
20 11 92 -3 106 -17 17 -93 15 -107 -2z"/>
<path d="M1769 1174 c-7 -9 -13 -31 -13 -49 0 -49 18 -65 75 -65 39 0 49 -3
50 -17 1 -10 3 -33 5 -51 4 -49 20 -62 75 -62 l49 0 0 -48 c0 -59 20 -82 72
-82 45 0 56 14 60 75 l3 50 50 3 c27 2 55 8 62 14 16 13 17 90 1 106 -8 8 -50
12 -124 12 -124 0 -124 0 -124 69 0 56 -11 61 -126 61 -81 0 -104 -3 -115 -16z"/>
<path d="M3822 1178 c-8 -8 -12 -64 -12 -184 0 -99 -4 -175 -10 -179 -5 -3
-28 -7 -50 -10 -55 -5 -70 -20 -70 -66 0 -57 24 -69 137 -69 70 0 95 4 107 16
14 13 16 50 16 248 0 167 -3 235 -12 244 -16 16 -90 16 -106 0z"/>
<path d="M4082 1178 c-9 -9 -12 -78 -12 -250 0 -224 1 -238 19 -248 28 -14 63
-12 89 6 18 12 22 25 22 65 l0 49 49 0 c70 0 81 18 81 137 0 110 -8 123 -81
123 l-49 0 0 49 c0 32 -6 55 -16 65 -18 19 -85 21 -102 4z"/>
<path d="M2412 1048 c-7 -7 -12 -29 -12 -49 0 -21 -7 -45 -16 -53 -8 -9 -32
-16 -53 -16 -47 0 -61 -14 -61 -61 0 -60 17 -69 130 -69 130 0 130 0 130 134
0 66 -4 106 -12 114 -16 16 -90 16 -106 0z"/>
<path d="M1637 923 c-12 -11 -8 -98 5 -111 7 -7 30 -12 53 -12 51 0 65 13 65
61 0 62 -6 69 -64 69 -29 0 -56 -3 -59 -7z"/>
<path d="M1782 799 c-12 -5 -23 -16 -23 -26 -4 -46 3 -79 18 -90 24 -18 193
-17 217 0 21 16 26 91 8 109 -13 13 -188 19 -220 7z"/>
<path d="M2175 802 c-28 -6 -35 -20 -35 -69 0 -46 17 -63 65 -63 50 0 65 16
65 71 0 31 -5 51 -12 53 -30 10 -64 13 -83 8z"/>
<path d="M2570 803 c-14 -3 -30 -11 -36 -18 -15 -20 -7 -88 13 -102 24 -18 78
-16 97 3 16 16 22 80 8 100 -9 14 -49 22 -82 17z"/>
<path d="M1 83 l-1 -83 78 0 77 0 -43 21 c-46 23 -88 71 -102 116 -6 21 -9 7
-9 -54z"/>
<path d="M4990 143 c-1 -32 -54 -96 -99 -120 l-44 -23 76 0 77 0 0 80 c0 44
-2 80 -5 80 -3 0 -5 -8 -5 -17z"/>
</g>
</svg>
